<?xml version="1.0" standalone="no"?>
<!DOCTYPE svg PUBLIC "-//W3C//DTD SVG 1.1//EN" "http://www.w3.org/Graphics/SVG/1.1/DTD/svg11.dtd" >
<!--
2013-9-30: Created.
-->
<svg>
<metadata>
Created by iconfont
</metadata>
<defs>

<font id="iconfont" horiz-adv-x="1024" >
  <font-face
    font-family="iconfont"
    font-weight="500"
    font-stretch="normal"
    units-per-em="1024"
    ascent="896"
    descent="-128"
  />
    <missing-glyph />
    
    <glyph glyph-name="neiwang" unicode="&#59044;" d="M649.216 784.832 420.544 784.832c-11.968 0-21.632-9.664-21.632-21.568l0-151.872c0-11.904 9.664-21.568 21.632-21.568l228.608 0c11.968 0 21.632 9.664 21.632 21.568L670.784 763.264C670.784 775.168 661.12 784.832 649.216 784.832zM399.872 485.824 378.56 485.824c-5.12 0-9.344-2.88-9.344-6.464 0-3.648 4.16-6.528 9.344-6.528l21.312 0c5.056 0 9.28 2.88 9.28 6.528C409.152 482.944 404.928 485.824 399.872 485.824zM458.048 485.824 436.8 485.824c-5.12 0-9.28-2.88-9.28-6.464 0-3.648 4.096-6.528 9.28-6.528l21.248 0c5.184 0 9.344 2.88 9.344 6.528C467.392 482.944 463.232 485.824 458.048 485.824zM516.352 485.824 495.104 485.824c-5.12 0-9.344-2.88-9.344-6.464 0-3.648 4.16-6.528 9.344-6.528l21.248 0c5.12 0 9.344 2.88 9.344 6.528C525.696 482.944 521.472 485.824 516.352 485.824zM574.656 485.824 553.344 485.824c-5.12 0-9.344-2.88-9.344-6.464 0-3.648 4.16-6.528 9.344-6.528l21.248 0c5.12 0 9.344 2.88 9.344 6.528C583.936 482.944 579.776 485.824 574.656 485.824zM632.896 485.824 611.648 485.824c-5.12 0-9.344-2.88-9.344-6.464 0-3.648 4.16-6.528 9.344-6.528l21.248 0c5.12 0 9.344 2.88 9.344 6.528C642.176 482.944 638.016 485.824 632.896 485.824zM691.2 485.824l-21.248 0c-5.184 0-9.344-2.88-9.344-6.464 0-3.648 4.096-6.528 9.344-6.528L691.2 472.832c5.12 0 9.28 2.88 9.28 6.528C700.416 482.944 696.32 485.824 691.2 485.824zM407.616 493.44l21.248 0c5.12 0 9.28 2.88 9.28 6.528 0 3.584-4.096 6.464-9.28 6.464L407.616 506.432c-5.184 0-9.344-2.88-9.344-6.464C398.336 496.32 402.432 493.44 407.616 493.44zM465.856 493.44l21.248 0c5.12 0 9.344 2.88 9.344 6.528 0 3.584-4.16 6.464-9.344 6.464L465.856 506.432c-5.12 0-9.344-2.88-9.344-6.464C456.576 496.32 460.736 493.44 465.856 493.44zM524.096 493.44l21.248 0c5.184 0 9.344 2.88 9.344 6.528 0 3.584-4.096 6.464-9.344 6.464L524.096 506.432c-5.12 0-9.344-2.88-9.344-6.464C514.816 496.32 518.976 493.44 524.096 493.44zM582.4 493.44l21.312 0c5.12 0 9.344 2.88 9.344 6.528 0 3.584-4.16 6.464-9.344 6.464L582.4 506.432c-5.12 0-9.28-2.88-9.28-6.464C573.12 496.32 577.28 493.44 582.4 493.44zM640.704 493.44l21.248 0c5.12 0 9.344 2.88 9.344 6.528 0 3.584-4.16 6.464-9.344 6.464l-21.248 0c-5.12 0-9.344-2.88-9.344-6.464C631.36 496.32 635.584 493.44 640.704 493.44zM403.456 389.888 174.784 389.888c-11.968 0-21.632-9.664-21.632-21.632l0-151.808c0-11.904 9.664-21.632 21.632-21.632l228.608 0c11.968 0 21.632 9.728 21.632 21.632L425.024 368.256C425.088 380.224 415.36 389.888 403.456 389.888zM406.848 151.616 400.256 153.984 400.256 151.616ZM499.776 100.096c0 11.264-9.28 20.48-20.608 20.48L463.808 120.576 448.64 151.616 406.848 151.616l34.048-12.352c4.096-8.256 15.168-30.976 15.168-30.976l22.976 0c4.544 0 8.256-3.648 8.256-8.128l0-2.752c0 0 11.328-24.896 13.952-30.72-0.768-3.776-3.712-6.72-7.616-6.72L84.544 59.968c-4.032 0-6.912 3.008-7.616 6.72 2.624 5.888 13.952 30.72 13.952 30.72l0 2.752c0 4.48 3.712 8.128 8.256 8.128l22.912 0c0 0 11.2 22.72 15.232 30.976 10.88 0 52.992 0 52.992 0s0 16.128 0 19.264c20.736 0 176.896 0 197.632 0l12.288-4.48L400.192 165.76l31.616 0c12.032 0 21.888 8.64 21.888 19.264L453.696 399.744c0 10.624-9.792 19.328-21.888 19.328L146.368 419.072c-12.032 0-21.888-8.704-21.888-19.328l0-214.72c0-10.624 9.792-19.264 21.888-19.264l31.616 0 0-14.144L129.6 151.616l-15.232-30.976L99.136 120.64c-11.392 0-20.608-9.28-20.608-20.48L64 68.096c0-11.392 9.28-20.608 20.544-20.608l409.152 0c11.392 0 20.544 9.28 20.544 20.608L499.776 100.096zM146.368 178.112c-5.184 0-9.472 3.136-9.472 6.848L136.896 399.744c0 3.776 4.288 6.912 9.472 6.912l285.504 0c5.12 0 9.472-3.2 9.472-6.912l0-214.72c0-3.776-4.352-6.848-9.472-6.848L146.368 178.176zM154.048 90.88 132.8 90.88c-5.12 0-9.344-2.88-9.344-6.528s4.16-6.528 9.344-6.528l21.248 0c5.12 0 9.344 2.88 9.344 6.528S159.168 90.88 154.048 90.88zM212.288 90.88 191.104 90.88c-5.184 0-9.344-2.88-9.344-6.528s4.096-6.528 9.344-6.528l21.184 0c5.184 0 9.344 2.88 9.344 6.528S217.472 90.88 212.288 90.88zM270.656 90.88 249.344 90.88c-5.12 0-9.344-2.88-9.344-6.528s4.16-6.528 9.344-6.528l21.248 0c5.12 0 9.344 2.88 9.344 6.528S275.776 90.88 270.656 90.88zM328.896 90.88 307.648 90.88c-5.12 0-9.344-2.88-9.344-6.528s4.16-6.528 9.344-6.528l21.248 0c5.12 0 9.344 2.88 9.344 6.528S334.016 90.88 328.896 90.88zM387.136 90.88 365.888 90.88c-5.12 0-9.344-2.88-9.344-6.528s4.16-6.528 9.344-6.528l21.248 0c5.12 0 9.344 2.88 9.344 6.528S392.256 90.88 387.136 90.88zM414.848 84.352c0-3.648 4.16-6.528 9.28-6.528L445.44 77.824c5.12 0 9.28 2.88 9.28 6.528S450.56 90.88 445.44 90.88L424.128 90.88C419.072 90.88 414.848 88 414.848 84.352zM161.856 98.496l21.248 0c5.12 0 9.28 2.88 9.28 6.528s-4.096 6.528-9.28 6.528L161.856 111.552c-5.184 0-9.344-2.88-9.344-6.528S156.672 98.496 161.856 98.496zM220.096 98.496l21.248 0c5.12 0 9.344 2.88 9.344 6.528s-4.16 6.528-9.344 6.528L220.096 111.552c-5.12 0-9.344-2.88-9.344-6.528S214.976 98.496 220.096 98.496zM278.4 98.496l21.248 0c5.12 0 9.344 2.88 9.344 6.528s-4.16 6.528-9.344 6.528L278.4 111.552c-5.12 0-9.344-2.88-9.344-6.528S273.28 98.496 278.4 98.496zM336.704 98.496l21.248 0c5.12 0 9.28 2.88 9.28 6.528s-4.096 6.528-9.28 6.528L336.704 111.552c-5.184 0-9.344-2.88-9.344-6.528S331.52 98.496 336.704 98.496zM394.944 98.496l21.248 0c5.12 0 9.344 2.88 9.344 6.528s-4.16 6.528-9.344 6.528L394.944 111.552c-5.12 0-9.344-2.88-9.344-6.528S389.824 98.496 394.944 98.496zM849.216 296.384 620.544 296.384c-11.968 0-21.632-9.6-21.632-21.504l0-151.872c0-11.904 9.664-21.632 21.632-21.632l228.608 0c11.968 0 21.632 9.728 21.632 21.632L870.784 274.88C870.784 286.72 861.12 296.384 849.216 296.384zM945.472 6.656c0 11.392-9.28 20.48-20.608 20.48l-15.232 0-15.232 31.104L846.08 58.24l0 14.016 31.552 0c12.032 0 21.888 8.64 21.888 19.392L899.52 306.24c0 10.752-9.792 19.264-21.888 19.264L592.128 325.504c-12.032 0-21.888-8.512-21.888-19.264l0-31.488L533.184 274.752 533.184 442.496l206.272 0c11.392 0 20.544 9.216 20.544 20.608l-14.528 32c0 11.328-9.28 20.544-20.608 20.544l-15.296 0L694.4 546.624l-48.32 0L646.08 560.704l31.552 0c12.032 0 21.888 8.576 21.888 19.328L699.52 794.688c0 10.624-9.792 19.264-21.888 19.264L392.128 813.952c-12.032 0-21.888-8.64-21.888-19.264l0-214.656c0-10.752 9.792-19.328 21.888-19.328L423.68 560.704l0-14.144L375.36 546.56 360.128 515.584 344.896 515.584c-11.392 0-20.608-9.216-20.608-20.544l-14.528-32c0-11.392 9.28-20.608 20.608-20.608l179.136 0 0-167.744L454.4 274.688l0-23.616L570.24 251.072l0-159.488c0-10.752 9.792-19.392 21.888-19.392l31.616 0 0-14.016L575.36 58.176l-15.232-31.104L544.896 27.072c-11.392 0-20.608-9.152-20.608-20.48l-14.528-32c0-11.392 9.28-20.608 20.608-20.608l409.088 0c11.392 0 20.544 9.28 20.544 20.608L945.472 6.656zM392.128 573.12c-5.12 0-9.536 3.136-9.536 6.976L382.592 794.688c0 3.776 4.416 6.848 9.536 6.848l285.504 0c5.184 0 9.472-3.136 9.472-6.848l0-214.656c0-3.84-4.288-6.976-9.472-6.976L392.128 573.056zM330.368 454.848c-4.032 0-6.912 3.008-7.68 6.784 2.624 5.824 13.888 30.72 13.888 30.72L336.576 495.04c0 4.544 3.776 8.192 8.32 8.192l22.912 0c0 0 11.136 22.656 15.232 30.976 10.88 0 52.992 0 52.992 0s0 16.064 0 19.264c20.736 0 176.96 0 197.632 0 0-3.136 0-19.264 0-19.264s42.112 0 52.992 0c4.032-8.32 15.168-30.976 15.168-30.976l22.976 0c4.544 0 8.256-3.712 8.256-8.192l0-2.688c0 0 11.328-24.896 13.952-30.72-0.768-3.776-3.712-6.784-7.616-6.784L330.368 454.848zM592.128 84.608c-5.12 0-9.472 3.264-9.472 6.976L582.656 306.24c0 3.776 4.352 6.976 9.472 6.976l285.504 0c5.184 0 9.472-3.264 9.472-6.976l0-214.656c0-3.776-4.288-6.976-9.472-6.976L592.128 84.608zM939.456-33.6 530.368-33.6c-4.032 0-6.912 3.008-7.68 6.848 2.624 5.76 13.952 30.72 13.952 30.72l0 2.624c0 4.48 3.712 8.256 8.256 8.256l22.976 0c0 0 11.136 22.656 15.168 30.848 10.88 0 52.992 0 52.992 0s0 16.128 0 19.392c20.736 0 176.896 0 197.632 0 0-3.264 0-19.392 0-19.392s42.112 0 52.992 0c4.096-8.256 15.168-30.848 15.168-30.848l22.976 0c4.544 0 8.256-3.776 8.256-8.256l0-2.624c0 0 11.328-25.024 13.952-30.72C946.304-30.656 943.424-33.6 939.456-33.6zM599.808-2.624 578.56-2.624c-5.12 0-9.28-2.88-9.28-6.528 0-3.52 4.096-6.528 9.28-6.528l21.248 0c5.184 0 9.344 3.008 9.344 6.528C609.152-5.504 604.992-2.624 599.808-2.624zM658.112-2.624 636.864-2.624c-5.184 0-9.344-2.88-9.344-6.528 0-3.52 4.096-6.528 9.344-6.528l21.248 0c5.12 0 9.28 3.008 9.28 6.528C667.392-5.504 663.232-2.624 658.112-2.624zM716.352-2.624 695.04-2.624c-5.056 0-9.28-2.88-9.28-6.528 0-3.52 4.16-6.528 9.28-6.528l21.312 0c5.12 0 9.344 3.008 9.344 6.528C725.696-5.504 721.472-2.624 716.352-2.624zM774.656-2.624l-21.312 0c-5.12 0-9.344-2.88-9.344-6.528 0-3.52 4.16-6.528 9.344-6.528l21.312 0c5.12 0 9.28 3.008 9.28 6.528C783.936-5.504 779.84-2.624 774.656-2.624zM832.96-2.624l-21.248 0c-5.184 0-9.344-2.88-9.344-6.528 0-3.52 4.096-6.528 9.344-6.528l21.248 0c5.12 0 9.344 3.008 9.344 6.528C842.24-5.504 838.08-2.624 832.96-2.624zM891.2-2.624l-21.248 0c-5.12 0-9.344-2.88-9.344-6.528 0-3.52 4.16-6.528 9.344-6.528l21.248 0c5.12 0 9.344 3.008 9.344 6.528C900.48-5.504 896.32-2.624 891.2-2.624zM607.616 4.992l21.248 0c5.12 0 9.344 2.88 9.344 6.528s-4.16 6.528-9.344 6.528L607.616 18.048c-5.184 0-9.344-2.88-9.344-6.528S602.432 4.992 607.616 4.992zM665.856 4.992l21.248 0c5.184 0 9.344 2.88 9.344 6.528s-4.096 6.528-9.344 6.528l-21.248 0c-5.12 0-9.28-2.88-9.28-6.528S660.736 4.992 665.856 4.992zM724.16 4.992l21.248 0c5.12 0 9.28 2.88 9.28 6.528s-4.096 6.528-9.28 6.528l-21.248 0c-5.184 0-9.344-2.88-9.344-6.528S718.976 4.992 724.16 4.992zM782.464 4.992l21.248 0c5.12 0 9.28 2.88 9.28 6.528s-4.096 6.528-9.28 6.528l-21.248 0c-5.184 0-9.344-2.88-9.344-6.528S777.28 4.992 782.464 4.992zM840.704 4.992l21.248 0c5.12 0 9.344 2.88 9.344 6.528s-4.16 6.528-9.344 6.528l-21.248 0c-5.12 0-9.344-2.88-9.344-6.528S835.584 4.992 840.704 4.992z"  horiz-adv-x="1024" />

    
    <glyph glyph-name="wangluoxinxiguanli" unicode="&#58947;" d="M980.650667 177.578667c0.32 0.704 0.448 1.450667 0.704 2.176C1009.002667 243.285333 1024 312.554667 1024 384c0 37.504-4.16 74.005333-11.861333 109.226667-0.213333 1.216-0.490667 2.389333-0.810667 3.562667-45.184 200.106667-207.808 356.074667-411.413333 391.509333-1.301333 0.277333-2.56 0.576-3.882667 0.682667C568.661333 893.525333 540.608 896 512 896 268.48 896 64.298667 725.077333 12.714667 496.938667c-0.341333-1.258667-0.661333-2.538667-0.896-3.84C4.16 457.941333 0 421.461333 0 384c0-7.232 0.149333-14.442667 0.448-21.632 0.853333-20.586667 17.984-36.16 38.826667-35.754667 20.586667 0.874667 36.586667 18.261333 35.712 38.848C74.730667 371.626667 74.624 377.792 74.624 384c0 22.336 1.706667 44.288 4.949333 65.749333l139.413333 0c-0.170667-6.997333-0.469333-13.909333-0.469333-20.970667 0-20.586667 16.704-37.312 37.312-37.312s37.312 16.725333 37.312 37.312c0 7.04 0.277333 13.973333 0.469333 20.970667l181.098667 0 0-59.242667c0-20.608 16.704-37.312 37.312-37.312 20.586667 0 37.312 16.704 37.312 37.312l0 59.242667 181.056 0c0.213333-6.997333 0.469333-13.930667 0.469333-20.970667 0-64.384-8.064-126.101333-23.957333-183.402667-5.525333-19.882667 6.122667-40.448 25.962667-45.930667 3.328-0.917333 6.698667-1.365333 10.005333-1.365333 16.341333 0 31.338667 10.816 35.925333 27.349333 17.706667 63.808 26.688 132.224 26.688 203.370667 0 7.04-0.32 13.973333-0.490667 20.970667l139.456 0c3.264-21.461333 4.949333-43.413333 4.949333-65.749333 0-61.013333-12.842667-120.213333-36.437333-174.464-10.816-15.296-77.994667-100.970667-233.28-113.621333-20.629333-1.685333-39.232-2.517333-56.789333-2.517333-82.666667 0-153.834667 18.88-220.8 58.944l83.562667 89.066667c10.197333 10.837333 12.949333 26.688 7.061333 40.362667-5.909333 13.653333-19.370667 22.464-34.24 22.464L120.917333 304.256c-20.586667 0-37.312-16.682667-37.312-37.290667l0-337.194667c0-15.104 9.088-28.714667 23.04-34.474667 13.952-5.781333 29.973333-2.602667 40.661333 8.085333l84.074667 84.074667c47.146667-41.493333 149.461333-115.349333 280.597333-115.413333l0.128 0c153.344 0 365.909333 78.336 465.130667 298.112 0.256 0.576 0.512 1.173333 0.789333 1.749333C978.901333 173.781333 979.797333 175.616 980.650667 177.578667M444.629333 816.170667c9.898667 1.536 19.946667 2.645333 30.058667 3.498667l0-120.746667c-38.165333 4.138667-74.773333 14.634667-108.928 31.125333C388.096 767.552 414.698667 797.312 444.629333 816.170667M549.312 819.669333c9.898667-0.853333 19.776-1.898667 29.482667-3.392 29.845333-18.624 56.618667-48.533333 79.125333-86.592-34.069333-16.32-70.592-26.709333-108.608-30.805333L549.312 819.669333zM97.834667 524.373333c27.605333 81.216 78.442667 151.744 144.597333 203.690667 2.304-5.589333 5.845333-10.752 10.901333-14.826667 4.949333-4.010667 10.218667-7.573333 15.36-11.306667-21.674667-52.8-36.8-113.002667-44.437333-177.536L97.834667 524.394667zM299.328 524.373333c6.592 50.154667 18.346667 97.066667 34.261333 138.666667 44.245333-21.184 92.010667-34.666667 141.098667-39.189333l0-99.498667L299.328 524.352zM549.312 524.373333l0 99.456c48.874667 4.437333 96.512 17.770667 140.672 38.784 15.936-41.621333 27.797333-88.426667 34.496-138.24L549.312 524.373333zM799.530667 524.373333c-7.744 64-23.082667 124.010667-44.778667 176.832 5.141333 3.733333 10.410667 7.274667 15.36 11.242667 5.354667 4.288 9.045333 9.749333 11.349333 15.701333 66.218667-51.968 117.056-122.517333 144.661333-203.776L799.530667 524.373333zM512.106667-90.688 512-53.376c-144.704 0.064-252.373333 116.885333-253.397333 117.994667-6.826667 7.594667-16.512 12.074667-26.752 12.352-0.341333 0-0.661333 0-0.981333 0-9.877333 0-19.392-3.946667-26.368-10.922667l-46.272-46.272 0 209.813333L372.266667 229.589333l-54.848-58.432c-7.317333-7.786667-10.944-18.368-9.941333-29.034667 1.024-10.645333 6.549333-20.373333 15.232-26.645333 89.557333-65.066667 187.733333-96.704 300.16-96.704 19.626667 0 40.170667 0.917333 62.869333 2.773333 35.029333 2.858667 66.410667 8.96 94.528 17.109333-7.957333-6.165333-16.064-12.181333-24.490667-17.834667-1.237333-0.832-2.282667-1.877333-3.413333-2.837333-78.784-50.624-167.36-71.36-240.256-71.36L512.106667-90.688z"  horiz-adv-x="1024" />

    
    <glyph glyph-name="yuandianzhong" unicode="&#59440;" d="M480 416m-288 0a4.5 4.5 0 1 0 576 0 4.5 4.5 0 1 0-576 0Z"  horiz-adv-x="1024" />

    
    <glyph glyph-name="qian" unicode="&#58887;" d="M512 881.991c-278.418 0-504.168-225.75-504.219-504.219 0-278.567 225.75-504.269 504.219-504.269 278.517 0 504.269 225.75 504.269 504.269 0 278.468-225.7 504.219-504.269 504.219zM734.996 384.338c1.704-8.067 2.556-17.238 2.556-27.561 0-12.629-0.852-23.252-2.556-31.871h-165.216v-75.769h165.216c1.704-8.018 2.556-17.189 2.556-27.512 0-12.679-0.852-23.252-2.556-31.871h-165.216v-135.1c-6.966-1.103-14.081-2.005-21.548-2.606-7.466-0.601-14.982-0.902-22.399-0.902-7.466 0-14.883 0.3-22.349 0.902-7.417 0.601-14.633 1.452-21.548 2.606v135.1h-158.351c-2.306 6.916-3.457 16.636-3.457 29.265 0 5.212 0.3 10.323 0.852 15.535 0.601 5.162 1.452 10.022 2.606 14.583h158.351v75.769h-158.351c-2.306 6.916-3.457 16.636-3.457 29.265 0 5.162 0.3 10.323 0.852 15.535 0.601 5.162 1.452 10.022 2.606 14.633h123.925l-158.351 278.818c7.466 1.152 15.635 2.005 24.505 2.556 8.969 0.601 17.439 0.902 25.457 0.902 8.018 0 16.335-0.3 24.956-0.852s16.335-1.404 23.252-2.556l141.113-259.927 138.607 259.927c7.417 1.152 15.033 2.005 22.799 2.556 7.667 0.55 15.635 0.852 23.653 0.852s16.035-0.3 24.053-0.852c8.067-0.55 15.535-1.404 22.399-2.556l-155.746-278.818h130.79zM496.014 189.805z"  horiz-adv-x="1024" />

    
    <glyph glyph-name="hetongguanli" unicode="&#58995;" d="M784 736c-8 2-14 2-22 2l0 0c8 0 16 0 22-2zM810 728c-2 0-2 2-4 2 2 0 4-2 4-2zM856 690c-2 2-4 6-6 8 2-4 4-6 6-8zM896 84c-4 0-6 0-10 0l-18 0 0 562c0 8 0 14-2 22 2-6 2-14 2-22l0-562 18 0c4 0 6 0 10 0zM914 90c-2-2-6-2-8-4 2 2 6 2 8 4zM960 838c-20 16-46 24-72 24l-626 0c-28 0-54-8-72-24-20-18-32-42-32-66l0-32-20 0c-28 0-54-8-72-24-22-20-34-44-34-70l0-650c0-26 12-50 32-66s46-24 72-24l624 0c28 0 54 8 72 24 20 18 34 42 34 66l0 32 18 0c28 0 54 8 72 24 20 18 32 42 32 66l0 652c4 26-8 50-28 68zM814-2c0-20-24-36-52-36l-624 0c-28 0-52 16-52 36l0 648c0 20 24 36 52 36l624 0c28 0 52-16 52-36l0-648zM938 122c0-8-4-16-10-22 0 0 0 0-2-2-2-2-4-4-6-4 0 0-2 0-2-2s-2 0-2-2c0 0-2 0-2-2 0 0 0 0-2 0-2-2-6-2-8-4 0 0-2 0-2 0 0 0 0 0-2 0-2 0-4 0-6-2-4 0-6 0-10 0l-18 0 0 564c0 8 0 14-2 22 0 2 0 2-2 4 0 2 0 2-2 4 0 2 0 2-2 4 0 2-2 2-2 4-2 2-2 4-4 6-2 2-4 6-6 8-2 4-6 6-8 10-2 2-4 4-8 6-2 2-2 2-4 4 0 0 0 0-2 2l0 0c-2 0-2 2-4 2-4 2-10 6-14 8-2 0-2 2-4 2-2 0-4 2-6 2 0 0-2 0-2 0-4 0-6 2-10 2 0 0-2 0-2 0-2 0-2 0-4 0-8 2-14 2-22 2l-546 0 0 32c0 4 0 8 2 12s4 6 8 10c10 10 24 16 42 16l624 0c28 0 52-16 52-36l0-650zM172 626l402 0 0-54-402 0 0 54zM662 598c0 16 12 28 28 30 16 0 28-12 30-28 0 0 0-2 0-2 0-16-12-28-28-30-16 0-28 12-30 28 0 0 0 2 0 2zM86 524l728 0 0-54-728 0 0 54z"  horiz-adv-x="1024" />

    
    <glyph glyph-name="kaoqintongji" unicode="&#58908;" d="M941.719269 665.858945C941.719269 690.700745 921.602814 710.817203 896.761012 710.817203L127.54276 710.817203C102.700959 710.817203 82.584501 690.700745 82.584501 665.858945L82.584501-11.282633C82.584501-36.124434 102.700959-56.240894 127.54276-56.240894L896.761012-56.240894C921.602814-56.240894 941.719269-36.124434 941.719269-11.282633L941.719269 665.858945 941.719269 665.858945ZM1003.08122-11.282633C1003.08122-70.011892 955.490267-117.602841 896.761012-117.602841L127.54276-117.602841C68.813503-117.602841 21.222554-70.011892 21.222554-11.282633L21.222554 665.858945C21.222554 724.588201 68.813503 772.17915 127.54276 772.17915L896.761012 772.17915C955.490267 772.17915 1003.08122 724.588201 1003.08122 665.858945L1003.08122-11.282633 1003.08122-11.282633ZM236.023122 603.416919C219.079395 603.416919 205.308396 617.187917 205.308396 634.131645L205.308396 864.255824C205.308396 881.199552 219.079395 894.97055 236.023122 894.97055 252.966851 894.97055 266.737849 881.199552 266.737849 864.255824L266.737849 634.131645C266.670344 617.187917 252.966851 603.416919 236.023122 603.416919M772.957041 603.416919C756.01331 603.416919 742.242312 617.187917 742.242312 634.131645L742.242312 864.255824C742.242312 881.199552 756.01331 894.97055 772.957041 894.97055 789.900767 894.97055 803.604259 881.199552 803.604259 864.255824L803.604259 634.131645C803.671765 617.187917 789.900767 603.416919 772.957041 603.416919M969.261269 537.397134 48.76455 537.397134C40.258934 537.397134 33.440939 544.282633 33.440939 552.720744 33.440939 561.226361 40.326438 568.044355 48.76455 568.044355L969.261269 568.044355C977.766883 568.044355 984.584876 561.158856 984.584876 552.720744 984.584876 544.215128 977.766883 537.397134 969.261269 537.397134M243.921195 372.482683C245.541312 370.997572 247.768974 370.120008 250.131645 370.187514 252.561821 370.25502 254.654473 371.267592 256.207085 372.887712L273.960872 391.384052 273.893367 391.51906 357.666939 478.060331C359.219551 479.612944 360.097115 481.773101 360.02961 484.135772 359.962105 486.43094 358.882027 488.523591 357.26191 490.008699L342.410833 504.319736C340.790716 505.804844 337.685491 506.682408 335.255315 506.614903 332.892643 506.547398 331.677556 505.534824 330.192448 503.982212L284.086606 451.935941C274.365902 441.337672 251.819267 417.845969 247.498954 417.845969 243.246146 417.845969 237.575735 424.866476 235.955617 426.351583L217.121752 443.632837C215.43413 445.117944 213.273974 445.995508 210.843798 445.928006 208.481126 445.860499 206.32097 444.847927 204.768357 443.227808L192.955001 430.941917C191.402388 429.321802 190.524825 427.161645 190.59233 424.866476 190.659835 422.503805 191.672408 420.411154 193.292525 418.926047L243.921195 372.482683 243.921195 372.482683ZM486.331265 372.482683C487.95138 370.997572 490.179043 370.120008 492.541714 370.187514 494.971892 370.25502 497.064542 371.267592 498.617156 372.887712L516.438446 391.384052 516.303438 391.51906 600.077009 478.060331C601.629622 479.612944 602.507186 481.773101 602.43968 484.135772 602.372174 486.43094 601.359602 488.523591 599.739486 490.008699L584.888406 504.319736C583.268291 505.804844 580.095562 506.682408 577.665384 506.614903 575.302713 506.547398 574.087627 505.534824 572.602515 503.982212L526.56418 451.935941C516.775973 441.337672 494.229336 417.845969 489.909023 417.845969 485.656216 417.845969 479.985803 424.866476 478.365688 426.351583L459.531821 443.632837C457.911706 445.117944 455.684043 445.995508 453.321372 445.928006 450.958701 445.860499 448.798544 444.847927 447.24593 443.227808L435.365069 430.941917C433.81246 429.321802 432.934896 427.161645 433.002398 424.866476 433.069904 422.503805 434.149982 420.411154 435.770102 418.926047L486.331265 372.482683 486.331265 372.482683ZM720.033202 372.482683C721.653322 370.997572 723.88098 370.120008 726.243652 370.187514 728.673829 370.25502 730.766479 371.267592 732.319093 372.887712L750.140383 391.451554 750.005375 391.586566 833.778946 478.127837C835.331559 479.680451 836.209123 481.840607 836.141617 484.203278 836.074115 486.565949 835.061539 488.658601 833.441423 490.143709L818.590347 504.454746C816.970228 505.939854 813.797499 506.817417 811.434828 506.749912 809.072157 506.682408 807.85707 505.669834 806.304457 504.117222L760.266117 452.070949C750.47791 441.540186 727.931277 417.980977 723.610964 417.980977 719.358153 417.980977 713.687745 425.001488 712.067625 426.486596L693.233762 443.767849C691.613643 445.252956 689.453486 446.13052 687.023309 446.063014 684.660638 445.995508 682.500481 444.982936 680.947872 443.36282L669.06701 431.009423C667.514397 429.45681 666.636833 427.296653 666.704339 424.933982 666.771841 422.571311 667.851919 420.478661 669.404533 418.993553L720.033202 372.482683 720.033202 372.482683ZM241.423514 199.872672C243.043631 198.387565 245.271293 197.510001 247.633964 197.577503 250.06414 197.645009 252.156792 198.657581 253.709404 200.277701L271.530696 218.841547 271.463191 218.909049 355.236763 305.450324C356.789375 307.002933 357.666939 309.16309 357.599434 311.525761 357.531929 313.888432 356.519356 315.981087 354.899239 317.466194L340.048162 331.777229C338.36054 333.194834 335.255315 334.072398 332.825138 334.004892 330.462467 333.937385 329.247379 332.924813 327.694767 331.3722L281.65643 279.325929C271.935725 268.727661 249.389091 245.235958 245.068778 245.235958 240.81597 245.235958 235.145559 252.256469 233.525441 253.741576L214.624071 271.022825C213.003954 272.507937 210.843798 273.385497 208.413621 273.317994 206.05095 273.250488 203.890794 272.237916 202.338181 270.617797L190.524825 258.331906C188.972212 256.779297 188.094649 254.61914 188.162154 252.256469 188.229658 249.893794 189.242232 247.801143 190.862349 246.316036L241.423514 199.872672 241.423514 199.872672ZM241.423514 26.452603C243.043631 24.967492 245.271293 24.089928 247.633964 24.157434 250.06414 24.22494 252.156792 25.237512 253.709404 26.857632L271.530696 45.421474 271.395686 45.556486 355.169258 132.097757C356.72187 133.717877 357.599434 135.810527 357.531929 138.173198 357.464424 140.535869 356.451851 142.62852 354.831734 144.113627L339.980657 158.424666C338.36054 159.909773 335.18781 160.787337 332.825138 160.719831 330.462467 160.652329 329.247379 159.639753 327.762271 158.087143L281.723935 106.040869C271.935725 95.510106 249.389091 71.950897 245.068778 71.950897 240.81597 71.950897 235.145559 78.971408 233.525441 80.456516L214.691576 97.737769C213.003954 99.087864 210.843798 99.965428 208.413621 99.897926 206.05095 99.830419 203.890794 98.817847 202.338181 97.197728L190.45732 84.844331C188.904707 83.291722 188.027144 81.131565 188.094649 78.768894 188.162154 76.406223 189.242232 74.313568 190.862349 72.828461L241.423514 26.452603 241.423514 26.452603ZM483.901088 199.872672C485.521207 198.387565 487.748866 197.510001 490.111537 197.577503 492.541714 197.645009 494.634365 198.657581 496.186978 200.277701L514.008269 218.841547 513.873261 218.909049 597.646832 305.450324C599.199445 307.002933 600.077009 309.16309 600.009503 311.525761 599.942001 313.82093 598.861922 315.913581 597.241803 317.398688L582.390727 331.709727C580.770611 333.194834 577.665384 334.072398 575.235207 334.004892 572.872536 333.937385 571.657449 332.924813 570.172342 331.3722L524.134003 279.325929C514.345796 268.727661 491.799163 245.235958 487.47885 245.235958 483.226038 245.235958 477.55563 252.256469 475.935511 253.741576L457.101648 271.022825C455.481528 272.507937 453.253865 273.385497 450.891194 273.317994 448.461021 273.250488 446.300865 272.237916 444.815757 270.685303L432.934896 258.331906C431.382282 256.779297 430.504718 254.61914 430.572225 252.256469 430.639727 249.893794 431.719805 247.801143 433.339924 246.316036L483.901088 199.872672 483.901088 199.872672ZM717.603029 199.872672C719.223144 198.387565 721.450807 197.510001 723.813478 197.577503 726.243652 197.645009 728.336306 198.657581 729.888915 200.277701L747.71021 218.841547 747.575198 218.976555 831.348773 305.517826C832.901382 307.070439 833.778946 309.230596 833.711444 311.593267 833.643938 313.955938 832.631366 316.048589 831.011246 317.5337L816.16017 331.844735C814.540055 333.329842 811.367322 334.207406 809.00465 334.1399 806.641979 334.072398 805.426893 333.059822 803.874279 331.507212L757.835944 279.325929C748.047733 268.795167 725.5011 245.235958 721.180787 245.235958 716.92798 245.235958 711.257567 252.256469 709.637448 253.741576L690.803585 271.022825C689.183465 272.507937 687.023309 273.385497 684.593136 273.317994 682.230465 273.250488 680.070308 272.237916 678.517694 270.617797L666.636833 258.264404C665.084219 256.711791 664.206655 254.551634 664.274162 252.188963 664.341668 249.826292 665.421746 247.733637 666.974355 246.24853L717.603029 199.872672 717.603029 199.872672ZM730.496463 126.427349C711.460082 126.427349 696.271483 126.494851 696.271483 126.494851L696.271483 29.76034C696.271483 29.76034 711.460082 29.827846 730.496463 29.827846L758.038458 29.827846C777.074835 29.827846 792.938488 29.76034 792.938488 29.76034L792.938488 126.494851C792.938488 126.494851 777.074835 126.427349 758.038458 126.427349L730.496463 126.427349 730.496463 126.427349ZM454.468956 126.494851 454.468956 91.932348 454.468956 29.827846C454.468956 29.827846 469.927576 29.895352 488.963957 29.895352L516.505952 29.895352C535.542329 29.895352 551.135961 29.827846 551.135961 29.827846L551.000953 91.932348C551.000953 110.968726 551.135961 126.494851 551.135961 126.494851L454.468956 126.494851 454.468956 126.494851Z"  horiz-adv-x="1024" />

    
    <glyph glyph-name="barchart" unicode="&#58935;" d="M365.714286 384l0-292.571429-146.285714 0 0 292.571429 146.285714 0zm219.428571 292.571429l0-585.142857-146.285714 0 0 585.142857 146.285714 0zm585.142857-658.285714l0-73.142857-1170.285714 0 0 877.714286 73.142857 0 0-804.571429 1097.142857 0zm-365.714286 512l0-438.857143-146.285714 0 0 438.857143 146.285714 0zm219.428571 219.428571l0-658.285714-146.285714 0 0 658.285714 146.285714 0z"  horiz-adv-x="1171" />

    
    <glyph glyph-name="tuoputu" unicode="&#58931;" d="M882.843096 280.529417l0.162706 153.035442-11.920494 0.01228 0 0.127913L543.599695 433.705052l0.079818 74.991971L588.660984 508.697023c25.997094 0 47.072085 21.074991 47.072085 47.072085L635.733069 776.275221c0 25.997094-21.074991 47.072085-47.072085 47.072085L447.968661 823.347307c-25.997094 0-47.072085-21.074991-47.072085-47.072085l0-220.507136c0-25.997094 21.074991-47.072085 47.072085-47.072085l40.455387 0-0.079818-74.991971L196.758246 433.704029l0-0.13917-25.955138 0.027629-0.160659-151.575184-5.105275 0c-25.997094 0-47.072085-21.074991-47.072085-47.072085L118.465089 14.439106c0-25.997094 21.074991-47.072085 47.072085-47.072085l140.693346 0c25.997094 0 47.072085 21.074991 47.072085 47.072085L353.302605 234.946242c0 25.997094-21.074991 47.072085-47.072085 47.072085L197.22999 282.018328 197.348694 393.798157l290.952558 0-0.115634-108.709911-41.260729 0c-25.997094 0-47.072085-21.074991-47.072085-47.072085l0-220.507136c0-25.997094 21.074991-47.072085 47.072085-47.072085l140.693346 0c25.997094 0 47.072085 21.074991 47.072085 47.072085L634.69032 238.016161c0 25.997094-21.074991 47.072085-47.072085 47.072085L543.441083 285.088246l0.115634 108.709911 312.818565 0-0.118704-111.779829L730.361263 282.018328c-25.997094 0-47.072085-21.074991-47.072085-47.072085L683.289178 14.439106c0-25.997094 21.074991-47.072085 47.072085-47.072085l140.693346 0c25.997094 0 47.072085 21.074991 47.072085 47.072085L918.126694 234.946242C918.126694 256.872624 903.135258 275.296229 882.843096 280.529417z"  horiz-adv-x="1024" />

    
    <glyph glyph-name="kaibiao" unicode="&#58932;" d="M258.698 702.955l511.997 0 0-63.999L258.698 638.956 258.698 702.955zM256.991 574.332l511.996 0 0-63.999L256.991 510.333 256.991 574.332zM256.991 446.34l131.311 0 0-64L256.991 382.34 256.991 446.34zM256.991 318.338l57.948 0 0-64-57.948 0L256.991 318.338zM898.695 896 130.701 896C95.356 896 66.702 867.346 66.702 832l0-895.992c0-35.345 28.654-63.999 63.999-63.999l299.4 0.328 0 63.999-299.4-0.328 0 895.992 767.995 0 0-386.556 63.999 0L962.695 832C962.693 867.346 934.035 896 898.695 896L898.695 896zM720.25 369.69l146.029-92.904L720.25 183.885l-146.027 92.902L720.25 369.69M720.25 431.02 477.808 276.786 720.25 122.553l242.444 154.233L720.25 431.02 720.25 431.02zM962.694 216.032 720.25 61.8 477.808 216.032l0-63.133L720.25-1.334l242.444 154.233 0 38.423L962.694 216.032zM962.694 89.369 720.25-64.865 477.808 89.369l0-63.134 242.442-154.233 242.444 154.233L962.694 89.369 962.694 89.369z"  horiz-adv-x="1024" />

    
    <glyph glyph-name="biaoqing" unicode="&#58910;" d="M342.36416 470.99392c28.83072 0 52.1984 23.3728 52.1984 52.19328 0 28.83072-23.36768 52.1984-52.1984 52.1984-28.8256 0-52.19328-23.36768-52.19328-52.1984C290.16576 494.36672 313.53856 470.99392 342.36416 470.99392L342.36416 470.99392zM690.33984 470.99392c28.83072 0 52.1984 23.3728 52.1984 52.19328 0 28.83072-23.36768 52.1984-52.1984 52.1984s-52.19328-23.36768-52.19328-52.1984C638.14656 494.36672 661.50912 470.99392 690.33984 470.99392L690.33984 470.99392zM237.97248 302.19776c0-137.40032 124.63616-248.7808 278.37952-248.7808 153.74848 0 278.38464 111.38048 278.38464 248.7808L237.97248 302.19776 237.97248 302.19776zM516.352-103.168c269.056 0 487.168 218.12224 487.168 487.168 0 269.056-218.11712 487.168-487.168 487.168C247.296 871.168 29.184 653.056 29.184 384 29.184 114.94912 247.296-103.168 516.352-103.168L516.352-103.168 516.352-103.168zM516.352-68.37248c-249.83552 0-452.36736 202.53184-452.36736 452.37248 0 249.8304 202.53184 452.37248 452.36736 452.37248 249.84064 0 452.37248-202.53696 452.37248-452.37248C968.72448 134.15936 766.18752-68.37248 516.352-68.37248L516.352-68.37248 516.352-68.37248z"  horiz-adv-x="1024" />

    
    <glyph glyph-name="kaoqinguanli" unicode="&#58916;" d="M921.6 727.341h-156.612v138.541h-60.235v-138.541h-385.506v138.541h-60.235v-138.541h-162.635c-36.141 0-66.259-30.118-66.259-66.259v-686.682c0-36.141 30.118-66.259 66.259-66.259h825.224c36.141 0 66.259 30.118 66.259 66.259v680.659c6.024 42.165-24.094 72.282-66.259 72.282zM921.6 655.059v-138.541h-825.224v138.541h825.224zM96.376-25.6v475.859h825.224v-475.859h-825.224zM445.741 143.059l-138.541 138.541-42.165-36.141 180.706-180.706 307.2 277.082-42.165 42.165z"  horiz-adv-x="1024" />

    
    <glyph glyph-name="bumenguanli" unicode="&#58990;" d="M977.454545 337.454545h-34.90909v104.727273c0 44.218182-37.236364 81.454545-81.454546 81.454546H546.909091v93.090909H744.727273c25.6 0 46.545455 20.945455 46.545454 46.545454V802.909091c0 25.6-20.945455 46.545455-46.545454 46.545454H279.272727c-25.6 0-46.545455-20.945455-46.545454-46.545454v-139.636364c0-25.6 20.945455-46.545455 46.545454-46.545454h197.818182v-93.090909H162.909091c-44.218182 0-81.454545-37.236364-81.454546-81.454546V337.454545H46.545455c-25.6 0-46.545455-20.945455-46.545455-46.545454v-325.818182c0-25.6 20.945455-46.545455 46.545455-46.545454h139.636363c25.6 0 46.545455 20.945455 46.545455 46.545454V290.909091c0 25.6-20.945455 46.545455-46.545455 46.545454H151.272727v104.727273c0 6.981818 4.654545 11.636364 11.636364 11.636364h314.181818v-116.363637H442.181818c-25.6 0-46.545455-20.945455-46.545454-46.545454v-325.818182c0-25.6 20.945455-46.545455 46.545454-46.545454h139.636364c25.6 0 46.545455 20.945455 46.545454 46.545454V290.909091c0 25.6-20.945455 46.545455-46.545454 46.545454h-34.909091v116.363637H861.090909c6.981818 0 11.636364-4.654545 11.636364-11.636364V337.454545H837.818182c-25.6 0-46.545455-20.945455-46.545455-46.545454v-325.818182c0-25.6 20.945455-46.545455 46.545455-46.545454h139.636363c25.6 0 46.545455 20.945455 46.545455 46.545454V290.909091c0 25.6-20.945455 46.545455-46.545455 46.545454zM162.909091 267.636364v-279.272728H69.818182V267.636364h93.090909z m395.636364 0v-279.272728h-93.09091V267.636364h93.09091zM302.545455 686.545455V779.636364h418.90909v-93.090909H302.545455z m651.636363-698.181819h-93.090909V267.636364h93.090909v-279.272728z"  horiz-adv-x="1024" />

    
    <glyph glyph-name="fanghu" unicode="&#58886;" d="M947.8144 771.652267C647.953067 771.652267 521.796267 885.077333 521.3184 886.237867a15.1552 15.1552 0 0 1-13.687467 9.4208h-0.341333a15.0528 15.0528 0 0 1-13.687467-9.216C493.1584 885.248 365.909333 771.618133 67.140267 771.618133a15.018667 15.018667 0 0 1-15.018667-14.984533L127.5904 247.808c24.644267-206.0288 358.638933-367.5136 373.794133-374.237867a15.018667 15.018667 0 0 1 12.049067 0c15.325867 6.724267 353.6896 168.209067 373.9648 374.237867l75.400533 508.8256c-0.034133 8.192-6.724267 15.018667-15.018666 15.018667zM502.6816-15.530667c-11.844267 5.188267-270.301867 129.501867-292.727467 292.864L134.485333 675.7376c0 6.485333 5.2224 11.776 11.810134 11.776 233.915733 0 349.934933 88.917333 350.208 89.873067a11.8784 11.8784 0 0 0 10.8544 7.168h0.273066c4.744533-0.2048 8.874667-3.003733 10.581334-7.3728 0.4096-0.8192 115.6096-89.668267 350.378666-89.668267 6.4512 0 11.605333-5.290667 11.605334-11.776l-75.332267-398.370133c-24.132267-158.651733-280.849067-287.675733-292.795733-292.864a9.898667 9.898667 0 0 0-4.676267-1.024 10.308267 10.308267 0 0 0-4.744533 1.024zM822.954667 372.736l57.275733 303.035733a11.6736 11.6736 0 0 1-11.605333 11.776c-234.769067 0-350.0032 88.814933-350.378667 89.668267a11.6736 11.6736 0 0 1-10.581333 7.338667l-0.238934 0.034133v-399.394133l315.528534-12.458667z m-631.057067 0h0.1024l-57.344 303.035733 57.2416-303.035733z m18.1248-95.368533c0-163.089067 280.814933-287.675733 292.7616-292.864a9.898667 9.898667 0 0 1 4.642133-1.024V385.160533l-315.392-12.424533 17.988267-95.402667z"  horiz-adv-x="1024" />

    
    <glyph glyph-name="switch" unicode="&#59251;" d="M537 75.7l-470 230v222l470-212zM537 75.7l420 230v220l-420-210zM67 527.7l470-212 420 210-494.4 166.6zM532 629.3l-117.1 7.1 28.7-48 29.5 13.6 102.7-39.2 29.6 14.4-102.9 38.4zM406.8 571.4l-116.6 9.6 28.3-50.4 29.4 13.6 102.1-42.7 29.6 14.4-102.2 41.9zM605.8 457.9l117.4-5.8-28 52.2-29.8-15.5-102.5 40.5-29.6-14.7 102.3-41.2zM538.8 423.1l-101.8 43.9-29.7-14.7 101.8-44.6-29.8-15.5 116.9-8.2-27.6 54.6z"  horiz-adv-x="1024" />

    
    <glyph glyph-name="liebiao" unicode="&#58898;" d="M853.312-79.168H170.688A170.88 170.88 0 0 0 0 91.456V725.376A170.816 170.816 0 0 0 170.688 896h682.688A170.752 170.752 0 0 0 1024 725.376v-633.92a170.88 170.88 0 0 0-170.688-170.624zM170.688 847.232c-67.2 0-121.856-54.72-121.856-121.856v-633.92c0-67.2 54.656-121.856 121.856-121.856h682.688a121.984 121.984 0 0 1 121.92 121.856V725.376A122.048 122.048 0 0 1 853.376 847.232H170.688zM804.544 603.456H219.456a24.32 24.32 0 1 0 0 48.768h585.152c13.44 0 24.448-10.944 24.448-24.384a24.576 24.576 0 0 0-24.512-24.384zM804.544 384H219.456a24.32 24.32 0 1 0 0 48.768h585.152c13.44 0 24.448-10.944 24.448-24.384S817.984 384 804.544 384zM804.544 164.544H219.456a24.384 24.384 0 0 0 0 48.832h585.152c13.44 0 24.448-10.944 24.448-24.384a24.576 24.576 0 0 0-24.512-24.448zM365.696 554.688a24.32 24.32 0 0 0-24.384 24.384V676.544a24.32 24.32 0 1 0 48.768 0v-97.472a24.32 24.32 0 0 0-24.384-24.384zM658.304 335.232a24.384 24.384 0 0 0-24.448 24.384V457.152a24.384 24.384 0 0 0 48.832 0V359.68a24.384 24.384 0 0 0-24.384-24.448zM365.696 115.84a24.448 24.448 0 0 0-24.384 24.448v97.408a24.32 24.32 0 1 0 48.768 0v-97.408a24.32 24.32 0 0 0-24.384-24.448z"  horiz-adv-x="1024" />

    
    <glyph glyph-name="yonghuguanli" unicode="&#58903;" d="M939.903382 896H128.618357C56.888889 896 0 839.111111 0 767.381643v-576.309179c0-71.729469 56.888889-128.618357 128.618357-128.618358H939.903382c71.729469 0 128.618357 56.888889 128.618357 128.618358V767.381643C1068.521739 839.111111 1011.63285 896 939.903382 896z m56.888889-704.927536c0-32.154589-24.7343-56.888889-56.888889-56.888889H128.618357c-32.154589 0-56.888889 24.7343-56.888888 56.888889V767.381643c0 32.154589 24.7343 56.888889 56.888888 56.888888H939.903382c32.154589 0 56.888889-24.7343 56.888889-56.888888v-576.309179zM905.275362-53.797101h-202.821256v19.787439c0 17.31401-14.84058 32.154589-32.154589 32.15459H378.434783c-17.31401 0-32.154589-14.84058-32.15459-32.15459v-19.787439H143.458937c-19.78744 0-37.101449-17.31401-37.101449-37.10145s17.31401-37.101449 37.101449-37.101449h761.816425c19.78744 0 37.101449 17.31401 37.10145 37.101449s-17.31401 37.101449-37.10145 37.10145zM818.705314 492.830918c9.89372 14.84058-2.47343 34.628019-19.78744 34.628019h-212.714975c-17.31401 0-29.681159-19.78744-19.78744-34.628019l66.782609-113.777778 9.893719-19.78744-19.787439-34.628019L568.888889 228.173913c0-2.47343-2.47343-2.47343-2.47343-4.94686v-2.47343c-2.47343-12.36715 7.42029-27.207729 22.26087-27.207729h212.714975c14.84058 0 24.7343 12.36715 22.26087 27.207729v2.47343c0 2.47343 0 2.47343-2.47343 4.94686L742.028986 359.2657l9.893719 19.78744 66.782609 113.777778z m-108.830918-113.777778h-32.154589l-64.309179 111.304348h160.772947l-64.309179-111.304348zM601.043478 359.2657L536.7343 475.516908c-4.94686 9.89372-7.42029 19.78744-7.42029 29.68116-7.42029 4.94686-17.31401 7.42029-24.7343 9.893719 44.521739 24.7343 74.202899 71.729469 74.202899 128.618358 0 81.623188-64.309179 145.932367-145.932367 145.932367-81.623188 0-145.932367-64.309179-145.932368-145.932367 0-54.415459 29.681159-101.410628 74.202899-128.618358-76.676329-27.207729-133.565217-101.410628-133.565217-187.980676 0-4.94686 2.47343-7.42029 7.420289-7.42029h343.806764l22.260869 39.574879z"  horiz-adv-x="1068" />

    
    <glyph glyph-name="yinhang" unicode="&#59250;" d="M264.7 546h495.8v-539.6H264.7zM264.7 546h495.8v-167.1H264.7zM535.8 810.8c-12.7 9.5-33.5 9.5-46.3 0L201.6 595.6c-12.7-9.5-10.1-17.3 5.7-17.3h610.6c15.9 0 18.5 7.8 5.7 17.3L535.8 810.8zM194.5 470.8h155.4V68H194.5zM194.5 470.8h155.4v-40.5H194.5zM349.9 458.3c13.1 0 23.8 10.6 23.8 23.8 0 13.1-10.6 23.8-23.8 23.8H194.5c-13.1 0-23.8-10.6-23.8-23.8 0-13.1 10.6-23.8 23.8-23.8h155.4zM349.9 80.4h-63.3V416.3h-28.9v-335.9h-63.3c-13.1 0-23.8-10.6-23.8-23.8 0-13.1 10.6-23.8 23.8-23.8h155.5c13.1 0 23.8 10.6 23.8 23.8 0 13.2-10.6 23.8-23.8 23.8zM434.9 470.8h155.4V68H434.9zM434.9 470.8h155.4v-40.5H434.9zM590.4 458.3c13.1 0 23.8 10.6 23.8 23.8 0 13.1-10.6 23.8-23.8 23.8H434.9c-13.1 0-23.8-10.6-23.8-23.8 0-13.1 10.6-23.8 23.8-23.8h155.5zM590.4 80.4h-63.3V416.3h-28.9v-335.9h-63.3c-13.1 0-23.8-10.6-23.8-23.8 0-13.1 10.6-23.8 23.8-23.8h155.5c13.1 0 23.8 10.6 23.8 23.8-0.1 13.2-10.7 23.8-23.8 23.8zM675.3 470.8h155.4V68H675.3zM675.3 470.8h155.4v-40.5H675.3zM830.8 458.3c13.1 0 23.8 10.6 23.8 23.8 0 13.1-10.6 23.8-23.8 23.8H675.3c-13.1 0-23.8-10.6-23.8-23.8 0-13.1 10.6-23.8 23.8-23.8h155.5zM830.8 80.4h-63.3V416.3h-28.9v-335.9h-63.3c-13.1 0-23.8-10.6-23.8-23.8 0-13.1 10.6-23.8 23.8-23.8h155.5c13.1 0 23.8 10.6 23.8 23.8-0.1 13.2-10.7 23.8-23.8 23.8zM897.3-10.6c0-5.2-4.3-9.5-9.5-9.5H137.5c-5.2 0-9.5 4.3-9.5 9.5v34c0 5.2 4.3 9.5 9.5 9.5h750.3c5.2 0 9.5-4.3 9.5-9.5v-34zM941.2-54.1c0-5.2-4.3-9.5-9.5-9.5H93.6c-5.2 0-9.5 4.3-9.5 9.5v34c0 5.2 4.3 9.5 9.5 9.5h838.1c5.2 0 9.5-4.3 9.5-9.5v-34zM868.2 597c0 10.6-8.7 19.3-19.3 19.3H176.3c-10.6 0-19.3-8.7-19.3-19.3v-41.2c0-10.6 8.7-19.3 19.3-19.3H849c10.6 0 19.3 8.7 19.3 19.3V597zM907.5 548c0 10.6-8.7 19.3-19.3 19.3H137c-10.6 0-19.3-8.7-19.3-19.3v-22.9c0-10.6 8.7-19.3 19.3-19.3h751.3c10.6 0 19.3 8.7 19.3 19.3V548zM512.6 732.7m-97.1 0a97.1 97.1 0 1 1 194.2 0 97.1 97.1 0 1 1-194.2 0ZM519.5 726.9v-26.4c9.3 1 14.3 5.6 14.3 12.6 0 6.4-3.2 10.3-14.3 13.8zM508 747v25.6c-9.3-0.9-13.9-5.8-13.9-12.2 0-6 2.8-9.8 13.9-13.4z m5.8 49.4c3.5 0 6.2-2.8 6.2-6.2v-3.2c8.5-1 15.8-3.8 22.5-8 2.3-1.3 4.3-3.5 4.3-6.9 0-4.5-3.6-8-8.1-8-1.4 0-2.9 0.4-4.3 1.3-5.1 3-10 5.2-14.9 6.4V744c22-5.5 31.4-14.3 31.4-29.8 0-15.9-12.5-26.5-30.9-28.2v-8.7c0-3.5-2.8-6.2-6.2-6.2-3.5 0-6.4 2.8-6.4 6.2v9c-10.9 1.2-20.9 5.1-29.7 11.3-2.5 1.6-3.9 3.9-3.9 7 0 4.5 3.5 8 8 8 1.7 0 3.5-0.6 4.8-1.6 6.8-4.9 13.5-8.3 21.4-9.7v28.5c-21.1 5.5-31 13.5-31 29.8 0 15.5 12.3 26.2 30.4 27.7v3c0.1 3.3 2.9 6.1 6.4 6.1z"  horiz-adv-x="1024" />

    
    <glyph glyph-name="jiaoseguanli" unicode="&#58915;" d="M333.504-126.496v307.104h31.36c28.992 0 52.352 23.36 52.352 52.32v217.856c0 28.96-23.36 52.32-52.352 52.32H198.112c-28.928 0-52.288-23.36-52.288-52.32v-217.856c0-28.928 23.36-52.32 52.288-52.32h31.392v-307.104H161.792v245.504a120.416 120.416 0 0 0-83.072 113.92v217.856a119.488 119.488 0 0 0 119.392 119.392h166.752c65.888 0 120.064-53.504 120.064-119.392v-217.856a120.48 120.48 0 0 0-83.072-113.92v-245.504h-68.352z m547.136 88a64.64 64.64 0 1 0 0 129.28 64.64 64.64 0 0 0 0-129.28z m-252.96 30.784v5.568a30.432 30.432 0 0 0-12.352 15.328 50.976 50.976 0 0 0-3.616 14.176V348.608h-48.672a33.6 33.6 0 0 0-23.328 11.104 32.224 32.224 0 0 0-8.608 24 32.96 32.96 0 0 0 31.936 31.968h48.672V737.568c0 6.784 1.824 13.504 6.112 19.072 6.816 9.856 17.216 16 28.352 16h86.176c9.824 0 17.792-4.32 23.968-10.464 6.176-6.176 9.184-15.392 9.184-24.032a33.664 33.664 0 0 0-32.576-32.608H679.36v-289.28h53.6c18.432 0 33.792-15.36 33.792-33.856 0-18.432-15.328-33.856-33.792-33.856H679.36v-288.64h52.992c18.4 0 33.792-15.424 33.792-33.856 0-18.496-15.36-33.856-33.792-33.856h-104.672v0.096z m252.96 325.536a64.64 64.64 0 1 0 0.064 129.344 64.64 64.64 0 0 0-0.064-129.344zM281.184 617.568A138.624 138.624 0 0 0 142.72 756.032 138.656 138.656 0 0 0 281.184 894.496a138.624 138.624 0 0 0 138.432-138.464c-0.576-76.928-62.08-138.464-138.432-138.464z m0 208.576c-38.752 0-70.784-32-70.784-70.752 0-38.784 32-70.784 70.784-70.784s70.784 32 70.784 70.784c0 38.784-32 70.752-70.784 70.752zM880.64 674.176a64.64 64.64 0 1 0 0 129.216 64.64 64.64 0 1 0 0-129.216z"  horiz-adv-x="1024" />

    
    <glyph glyph-name="weekly" unicode="&#58884;" d="M694.857143 530.285714h-512c-21.942857 0-36.571429-14.628571-36.571429-36.571428s14.628571-36.571429 36.571429-36.571429h512c21.942857 0 36.571429 14.628571 36.571428 36.571429S716.8 530.285714 694.857143 530.285714z m-219.428572-219.428571h-292.571428c-21.942857 0-36.571429-14.628571-36.571429-36.571429s14.628571-36.571429 36.571429-36.571428h292.571428c21.942857 0 36.571429 14.628571 36.571429 36.571428S497.371429 310.85714299999995 475.428571 310.85714299999995z m475.428572-256c0-21.942857-14.628571-36.571429-36.571429-36.571429h-804.571428c-21.942857 0-36.571429 14.628571-36.571429 36.571429v658.285714c0 21.942857 14.628571 36.571429 36.571429 36.571429H292.571429v-36.571429c0-21.942857 14.628571-36.571429 36.571428-36.571428s36.571429 14.628571 36.571429 36.571428V749.714286h292.571428v-36.571429c0-21.942857 14.628571-36.571429 36.571429-36.571428s36.571429 14.628571 36.571428 36.571428V749.714286h182.857143c21.942857 0 36.571429-14.628571 36.571429-36.571429v-658.285714zM914.285714 822.857143H731.428571V859.428571c0 21.942857-14.628571 36.571429-36.571428 36.571429S658.285714 881.371429 658.285714 859.428571V822.857143H365.714286V859.428571c0 21.942857-14.628571 36.571429-36.571429 36.571429S292.571429 881.371429 292.571429 859.428571V822.857143H109.714286C51.2 822.857143 0 771.657143 0 713.142857v-658.285714c0-58.514286 51.2-109.714286 109.714286-109.714286h804.571428c58.514286 0 109.714286 51.2 109.714286 109.714286v658.285714c0 58.514286-51.2 109.714286-109.714286 109.714286z"  horiz-adv-x="1024" />

    
    <glyph glyph-name="scan_lou_dong" unicode="&#60082;" d="M524.8 409.6c19.2 0 32 12.8 32 32V627.2c102.4-12.8 192-76.8 236.8-172.8 6.4-19.2 25.6-25.6 44.8-12.8 19.2 6.4 25.6 25.6 12.8 44.8l-19.2 38.4c44.8 38.4 76.8 76.8 102.4 128 6.4 12.8 0 32-12.8 44.8-12.8 6.4-32 0-44.8-12.8-25.6-44.8-51.2-83.2-83.2-108.8-25.6 25.6-51.2 51.2-76.8 64 0 6.4 6.4 6.4 6.4 12.8 0 12.8 6.4 25.6 6.4 38.4C729.6 800 640 889.6 531.2 889.6S320 793.6 320 684.8c0-12.8 0-25.6 6.4-38.4 0-6.4 0-6.4 6.4-6.4-32-19.2-57.6-38.4-83.2-64-32 25.6-57.6 64-76.8 102.4-12.8 19.2-32 25.6-44.8 12.8-19.2-6.4-25.6-25.6-12.8-38.4 25.6-51.2 57.6-96 102.4-128-32-44.8-51.2-96-57.6-147.2H44.8c-19.2 0-32-12.8-32-32s12.8-32 32-32h121.6c6.4-44.8 12.8-89.6 32-128-51.2-38.4-96-89.6-121.6-147.2-6.4-12.8 0-32 12.8-44.8 6.4 0 6.4-6.4 12.8-6.4 12.8 0 25.6 6.4 32 19.2 19.2 44.8 57.6 89.6 96 121.6 44.8-64 115.2-115.2 198.4-134.4h6.4c12.8 0 25.6 6.4 32 25.6 6.4 19.2-6.4 32-25.6 38.4-128 32-217.6 153.6-217.6 288 0 153.6 115.2 275.2 262.4 294.4v-185.6c6.4-25.6 19.2-44.8 38.4-44.8zM384 684.8c0 76.8 64 134.4 140.8 134.4 76.8 0 134.4-57.6 134.4-134.4v-19.2c-44.8 19.2-89.6 32-140.8 32-44.8 0-89.6-6.4-134.4-25.6 6.4 6.4 0 6.4 0 12.8zM1004.8-64l-89.6 89.6c70.4 96 64 224-19.2 313.6-96 96-243.2 96-339.2 0s-96-243.2 0-339.2c44.8-44.8 108.8-70.4 166.4-70.4 51.2 0 102.4 19.2 140.8 51.2l89.6-89.6c6.4-6.4 12.8-6.4 25.6-6.4s19.2 0 25.6 6.4c12.8 12.8 12.8 32 0 44.8z m-396.8 108.8c-70.4 70.4-70.4 179.2 0 249.6 32 32 76.8 51.2 121.6 51.2s89.6-19.2 121.6-51.2c70.4-70.4 70.4-179.2 0-249.6s-179.2-70.4-243.2 0z"  horiz-adv-x="1024" />

    
    <glyph glyph-name="fachewaibao" unicode="&#58905;" d="M1006.8992 189.9008h-17.1008v153.6c-17.1008 51.2-68.3008 153.6-68.3008 153.6-9.6 19.3024-29.59872 34.0992-51.2 34.0992h-136.3968c-15.69792 0-34.0992-18.40128-34.0992-34.0992v-290.0992c0-15.69792-1.39264-17.1008-17.1008-17.1008H204.8c58.39872 0 107.29984-51.2 107.29984-106.19904 0-7.5008 6.5024-13.30176 13.9008-13.30176h400.39936c7.5008 0 13.9008 5.80096 13.9008 13.30176 0 56.6016 54.70208 106.19904 112.9984 106.19904 58.29632 0 112.9984-49.60256 112.9984-106.19904 0-7.5008 6.5024-13.30176 13.99296-13.30176h26.30656c11.10016 0 17.39264 6.4 17.39264 14.19776v85.4016c0.01024 7.80288-9.1904 19.90144-17.09056 19.90144z m-247.79776 136.4992V467.59936h106.39872c27.39712 0 42.39872-36.80256 42.39872-36.80256l30.69952-76.00128v-28.40064l-179.49696 0.00512zM0 172.8v-88.20224a14.18752 14.18752 0 0 1 14.19776-14.19776h57.79968c7.5008 0 14.10048 5.80096 14.10048 13.30176 0 56.6016 60.40064 106.19904 118.70208 106.19904H17.1008c-7.90016 0-17.1008-9.20064-17.1008-17.1008zM290.0992 492.8h-256a29.91616 29.91616 0 0 1-29.9008-29.9008v-204.8a29.91616 29.91616 0 0 1 29.9008-29.9008h256a29.91616 29.91616 0 0 1 29.9008 29.9008v204.8a29.91616 29.91616 0 0 1-29.9008 29.9008z m-9.09824-218.61888c0-14.32576-5.76512-15.16544-14.50496-15.16544H56.4992c-20.83328 0-21.48352 8.92928-21.48352 23.5264V445.1072c0 7.43936 2.97472 12.27264 14.4128 12.27264h217.5232c14.6944 0 14.04416-10.04032 14.04416-15.62112l0.00512-167.5776zM631.5008 782.8992h-256a29.91616 29.91616 0 0 1-29.9008-29.9008v-204.8a29.91616 29.91616 0 0 1 29.9008-29.9008h256a29.91616 29.91616 0 0 1 29.9008 29.9008V753.1008c-0.1024 16.39936-13.50144 29.7984-29.9008 29.7984z m-8.6016-213.77536c0-14.05952-5.6576-14.88384-14.24384-14.88384h-206.1312c-20.44928 0-21.08416 8.76032-21.08416 23.0912V736.90624c0 7.30624 2.9184 12.05248 14.14656 12.05248h213.5296c14.41792 0 13.78304-9.856 13.78304-15.3344v-164.50048zM631.5008 492.8h-256a29.91616 29.91616 0 0 1-29.9008-29.9008v-204.8a29.91616 29.91616 0 0 1 29.9008-29.9008h256a29.91616 29.91616 0 0 1 29.9008 29.9008v204.8c-0.1024 16.50176-13.50144 29.9008-29.9008 29.9008z m-3.61472-214.51264c0-14.05952-5.65248-14.87872-14.22848-14.87872H407.64928c-20.43904 0-21.07904 8.76032-21.07904 23.08096V445.97248c0 7.30112 2.9184 12.04224 14.13632 12.04224h213.4016c14.41792 0 13.7728-9.85088 13.7728-15.32928l0.00512-164.39808zM201.23648 170.63424c-52.51584 0-95.11424-42.59328-95.11424-95.11424 0-52.51584 42.59328-95.10912 95.11424-95.10912 52.51584 0 95.10912 42.59328 95.10912 95.10912 0 52.52096-42.59328 95.11424-95.10912 95.11424z m0-166.4768c-39.36256 0-71.36256 32-71.36256 71.36256 0 39.36256 31.99488 71.36256 71.36256 71.36256s71.36256-32 71.36256-71.36256c-0.00512-39.36256-31.8976-71.36256-71.36256-71.36256zM853.18144 170.63424c-52.52096 0-95.10912-42.59328-95.10912-95.11424 0-52.51584 42.58816-95.10912 95.10912-95.10912 52.51584 0 95.10912 42.59328 95.10912 95.10912 0 52.52096-42.59328 95.11424-95.10912 95.11424z m0-166.4768c-39.36256 0-71.36256 32-71.36256 71.36256 0 39.36256 31.99488 71.36256 71.36256 71.36256s71.36256-32 71.36256-71.36256c-0.00512-39.36256-31.89248-71.36256-71.36256-71.36256z"  horiz-adv-x="1024" />

    
    <glyph glyph-name="right-arrow" unicode="&#58977;" d="M624.86499999 383.75300000000004l-292.15499999 292.159c-12.28 12.27-12.28 32.186 0 44.457 12.27 12.28 32.186 12.28 44.457 0l314.388-314.388c12.28-12.27 12.28-32.186 0-44.457l-314.388-314.387c-6.136-6.14-14.183-9.211-22.228-9.211s-16.092 3.071-22.228 9.211c-12.28 12.27-12.28 32.186 0 44.457l292.155 292.16z"  horiz-adv-x="1024" />

    
    <glyph glyph-name="zuo1" unicode="&#58880;" d="M340.019 384l416.358-416.332-36.198-36.224-452.557 452.557 452.557 452.557 36.198-36.224z"  horiz-adv-x="1024" />

    
    <glyph glyph-name="project_management" unicode="&#58892;" d="M950.857143 822.857143v-146.285714H73.142857V822.857143h877.714286z m0 73.142857H73.142857C29.257143 896 0 866.742857 0 822.857143v-146.285714c0-43.885714 29.257143-73.142857 73.142857-73.142858h877.714286c43.885714 0 73.142857 29.257143 73.142857 73.142858V822.857143c0 43.885714-29.257143 73.142857-73.142857 73.142857z m0-438.857143v-146.285714H73.142857V457.142857h877.714286z m0 73.142857H73.142857c-43.885714 0-73.142857-29.257143-73.142857-73.142857v-146.285714c0-43.885714 29.257143-73.142857 73.142857-73.142857h877.714286c43.885714 0 73.142857 29.257143 73.142857 73.142857V457.142857c0 43.885714-29.257143 73.142857-73.142857 73.142857z m0-438.857143v-146.285714H73.142857v146.285714h877.714286z m0 73.142858H73.142857c-43.885714 0-73.142857-29.257143-73.142857-73.142858v-146.285714c0-43.885714 29.257143-73.142857 73.142857-73.142857h877.714286c43.885714 0 73.142857 29.257143 73.142857 73.142857v146.285714c0 43.885714-29.257143 73.142857-73.142857 73.142858zM182.857143 786.285714c21.942857 0 36.571429-14.628571 36.571428-36.571428s-14.628571-36.571429-36.571428-36.571429S146.285714 727.771429 146.285714 749.714286s14.628571 36.571429 36.571429 36.571428z m0-365.714285c21.942857 0 36.571429-14.628571 36.571428-36.571429s-14.628571-36.571429-36.571428-36.571429S146.285714 362.057143 146.285714 384s14.628571 36.571429 36.571429 36.571429z m0-365.714286h146.285714c21.942857 0 36.571429-14.628571 36.571429-36.571429s-14.628571-36.571429-36.571429-36.571428h-146.285714c-21.942857 0-36.571429 14.628571-36.571429 36.571428s14.628571 36.571429 36.571429 36.571429z"  horiz-adv-x="1024" />

    
    <glyph glyph-name="zhanshi" unicode="&#59015;" d="M483.3 146.3h56v-186.9h-56zM417.9-12.1h186.9v-56H417.9zM960.9 117.5h-897v625h897v-625z m-841 56h785v513h-785v-513zM463.5 321.7l-95.9 95.9-84.2-84.2-39.6 39.6 123.8 123.8 95.8-95.7 144.4 145.4 173.1-173.1-39.6-39.6L608 467.2zM34.8 743.3h954.4v-56H34.8zM34.1 174.3h954.4v-56H34.1z"  horiz-adv-x="1024" />

    
    <glyph glyph-name="base_lou_dong" unicode="&#58913;" d="M736 608c-0.16 123.42-100.38 223.42-224 223.42S288.16 731.42 288 608zM64 352h160v-64H64zM64.004 45.254999999999995l183.763 183.763 45.254-45.255L109.258 0zM109.263 639.999L301.83 447.432l-45.255-45.254L64.008 594.744zM960 288H800v64h160zM914.75 0L730.985 183.76300000000003l45.255 45.254 183.763-183.762zM960.002 594.74L767.436 402.174l-45.255 45.255 192.566 192.566zM224 512v-320c0-140.8 115.2-256 256-256V576H288a64.19 64.19 0 0 1-64-64z m512 64H544v-640c140.8 0 256 115.2 256 256V512a64.19 64.19 0 0 1-64 64z"  horiz-adv-x="1024" />

    
    <glyph glyph-name="tuichu" unicode="&#58945;" d="M384 768H128v-768h256v64H192V704h192v64zM640 672l-64-64 192-192H352v-64h416L576 160l64-64 256 288-256 288z"  horiz-adv-x="1024" />

    
    <glyph glyph-name="kehuguanli" unicode="&#58882;" d="M512 611.555556m-227.555556 0a227.555556 227.555556 0 1 1 455.111112 0 227.555556 227.555556 0 1 1-455.111112 0ZM568.888889 384l-56.888889-113.777778 56.888889-170.666666-56.888889-56.888889-56.888889 56.888889 56.888889 170.666666-56.888889 113.777778a455.111111 455.111111 0 0 1-398.222222-455.111111h910.222222a455.111111 455.111111 0 0 1-398.222222 455.111111z"  horiz-adv-x="1024" />

    
    <glyph glyph-name="circle" unicode="&#58986;" d="M512-128C229.2224-128 0 101.2224 0 384S229.2224 896 512 896s512-229.2224 512-512-229.2224-512-512-512z m0 51.2a460.8 460.8 0 1 1 0 921.6 460.8 460.8 0 0 1 0-921.6z"  horiz-adv-x="1024" />

    
    <glyph glyph-name="mobanguanli" unicode="&#58934;" d="M511.6 346.6l-383 225L512.1 796.7l376.5-225-377-225.1z m-284.2 225l284-166.9 279.7 167-279.2 166.9-284.5-167zM512.8 150.7L130.3 375.3l25.4 43.1 357.1-209.8 359.6 210.8 25.2-43.1zM511.8-29.3L129.3 195.3l25.4 43.1 357.1-209.8 359.6 210.8 25.2-43.1z"  horiz-adv-x="1024" />

    
    <glyph glyph-name="warning" unicode="&#58957;" d="M947.23584-76.8H25.63584a25.6 25.6 0 0 0-22.3232 38.1952l460.8 819.2a25.6512 25.6512 0 0 0 44.6464 0l460.8-819.2A25.7536 25.7536 0 0 0 947.23584-76.8zM69.41184-25.6h834.048L486.43584 715.776 69.41184-25.6zM486.43584 179.2a25.6 25.6 0 0 0-25.6 25.6v256a25.6 25.6 0 0 0 51.2 0v-256a25.6 25.6 0 0 0-25.6-25.6zM486.43584 25.6a25.6 25.6 0 0 0-25.6 25.6v51.2a25.6 25.6 0 0 0 51.2 0v-51.2a25.6 25.6 0 0 0-25.6-25.6z"  horiz-adv-x="1024" />

    
    <glyph glyph-name="fenzhijigou" unicode="&#58894;" d="M959.884171 255.970682h-127.976012v95.971348a64.030651 64.030651 0 0 1-64.009329 64.009329H543.95147v95.971348h95.971348a64.009328 64.009328 0 0 1 63.988006 64.009328V831.88406a64.009328 64.009328 0 0 1-63.988006 63.988007H383.970793a64.030651 64.030651 0 0 1-64.009328-63.988007v-255.952025a64.030651 64.030651 0 0 1 64.009328-64.009328h95.971348v-95.971348H255.973458a64.030651 64.030651 0 0 1-63.988006-64.009329v-95.971348H64.00944a64.030651 64.030651 0 0 1-63.988007-63.988006v-255.973348a64.030651 64.030651 0 0 1 63.988007-63.988006h255.952025a64.030651 64.030651 0 0 1 64.009328 63.988006V191.982676a64.030651 64.030651 0 0 1-64.009328 63.988006h-63.988007v95.971348h511.925372v-95.971348h-63.988006a64.030651 64.030651 0 0 1-63.988006-63.988006v-255.973348a64.030651 64.030651 0 0 1 63.988006-63.988006h255.973347a64.030651 64.030651 0 0 1 63.988007 63.988006V191.982676a64.030651 64.030651 0 0 1-63.988007 63.988006z m-575.913378 319.961353V831.88406h255.952025v-255.952025H383.970793z m-64.009328-383.949359v-255.973348H64.00944V191.982676h255.952025z m639.922706-255.973348H703.910824V191.982676h255.973347v-255.973348z"  horiz-adv-x="1024" />

    
    <glyph glyph-name="xiaozu" unicode="&#58964;" d="M387.638958 270.634238c-172.41927 0-312.676732 140.208266-312.676732 312.676731S215.170492 896 387.638958 896s312.676732-140.269761 312.676732-312.689031-140.269761-312.676732-312.676732-312.676731z m0 554.17932c-133.160956 0-241.502588-108.341633-241.502588-241.502589s108.341633-241.490289 241.502588-241.490289 241.490289 108.329334 241.490289 241.490289S520.799914 824.813558 387.638958 824.813558zM739.684695-128a35.593221 35.593221 0 0 0-35.593221 35.593221c0 174.485497-141.967019 316.452516-316.452516 316.452516s-316.452516-141.967019-316.452516-316.452516a35.593221 35.593221 0 0 0-71.186442 0c0 213.743811 173.895146 387.638958 387.638958 387.638958s387.626659-173.895146 387.626659-387.638958a35.593221 35.593221 0 0 0-35.580922-35.593221zM664.722468 260.389195a35.593221 35.593221 0 0 0 0 71.186442c133.160956 0 241.490289 108.329334 241.49029 241.49029S797.883424 814.568515 664.722468 814.568515a35.593221 35.593221 0 1 0 0 71.174143c172.394672-0.036897 312.676732-140.245163 312.676732-312.676731S837.11714 260.389195 664.722468 260.389195zM1063.098428-123.252597a35.593221 35.593221 0 0 0-35.593221 35.593221c0 203.203594-149.174215 345.109117-362.819635 345.109117a35.593221 35.593221 0 0 0 0 71.186442c118.562077 0 227.297277-39.860964 306.24437-112.265004a384.281339 384.281339 0 0 0 93.718156-132.078646c22.593209-52.479708 34.043551-110.334066 34.043551-171.951909a35.593221 35.593221 0 0 0-35.593221-35.593221z"  horiz-adv-x="1098" />

    
    <glyph glyph-name="tongji" unicode="&#59512;" d="M93.090909-34.909091h930.909091v-93.090909H0V896h93.090909v-930.909091z m93.090909 442.181818h93.090909v-372.363636H186.181818V407.272727z m209.454546 139.636364h93.090909v-512h-93.090909V546.909091z m209.454545-139.636364h93.090909v-372.363636h-93.090909V407.272727z m209.454546 186.181818h93.090909v-558.545454h-93.090909V593.454545z m-555.985455-15.45309l-51.665455 77.451636L442.181818 812.311273l205.381818-136.936728 182.597819 162.327273 61.858909-69.585454-236.311273-210.036364L442.181818 700.416l-183.621818-122.414545z"  horiz-adv-x="1024" />

    
    <glyph glyph-name="guizeyinqing" unicode="&#60499;" d="M928.00032 384a95.68 95.68 0 0 1-32.256-5.952l-145.376 218.08A111.04 111.04 0 0 1 768.00032 656a112 112 0 1 1-224 0c0-28.288 10.848-53.856 28.16-73.568l-146.528-268.64A157.024 157.024 0 0 1 384.00032 320c-31.808 0-61.344-9.6-86.272-25.664l-117.344 140.8C187.55232 448.576 192.00032 463.68 192.00032 480a96 96 0 1 1-58.624-88.448l118.208-141.856A159.328 159.328 0 0 1 224.00032 160c0-88.224 71.776-160 160-160s160 71.776 160 160c0 50.784-24.224 95.584-61.248 124.896l143.744 263.52c9.472-2.592 19.232-4.416 29.504-4.416 16.288 0 31.648 3.648 45.6 9.888l144.416-216.608A95.04 95.04 0 0 1 832.00032 288a96 96 0 1 1 96 96zM384.00032 64c-52.928 0-96 43.072-96 96s43.072 96 96 96 96-43.072 96-96-43.072-96-96-96z"  horiz-adv-x="1024" />

    
    <glyph glyph-name="shouqianxuqiu" unicode="&#58924;" d="M989.696 232.44799999999998a184.32 184.32 0 0 1-40.96 93.5936A27.2384 27.2384 0 1 1 906.6496 291.84000000000003a128.3072 128.3072 0 0 0 28.9792-65.8432 138.1376 138.1376 0 0 0-33.6896-105.3696 27.2384 27.2384 0 0 1-6.0416-20.48l9.216-73.0112L829.44 58.26559999999995a27.4432 27.4432 0 0 1-19.3536 0.6144 240.0256 240.0256 0 0 0-47.8208-11.264 222.72 222.72 0 0 0-134.0416 23.7568 27.2384 27.2384 0 1 1-26.2144-47.8208 277.4016 277.4016 0 0 1 167.1168-30.1056 289.6896 289.6896 0 0 1 48.5376 10.24l109.568-46.08a27.2384 27.2384 0 0 1 37.5808 28.5696l-13.7216 108.544a189.6448 189.6448 0 0 1 38.6048 137.728zM905.0112 448.2048c0 200.704-195.584 363.9296-436.1216 363.9296S32.8704 648.8063999999999 32.8704 448.2048c0-85.504 36.1472-168.0384 102.4-233.5744v-211.6608a27.2384 27.2384 0 0 1 40.96-23.6544l197.0176 114.0736a516.4032 516.4032 0 0 1 95.6416-9.216c240.5376 0.1024 436.1216 163.328 436.1216 364.032zM468.992 138.75199999999995a465.3056 465.3056 0 0 0-94.8224 10.24 27.4432 27.4432 0 0 1-19.1488-3.072L189.44 50.176000000000045V226.20159999999998a27.2384 27.2384 0 0 1-8.6016 19.8656C120.5248 302.08000000000004 87.3472 373.76 87.3472 448.2048c0 170.5984 171.2128 309.4528 381.5424 309.4528s381.6448-138.8544 381.6448-309.4528S679.3216 138.75199999999995 468.992 138.75199999999995zM250.88 437.1456m-54.4768 0a54.4768 54.4768 0 1 1 108.9536 0 54.4768 54.4768 0 1 1-108.9536 0ZM468.992 437.1456m-54.4768 0a54.4768 54.4768 0 1 1 108.9536 0 54.4768 54.4768 0 1 1-108.9536 0ZM687.0016 437.1456m-54.4768 0a54.4768 54.4768 0 1 1 108.9536 0 54.4768 54.4768 0 1 1-108.9536 0Z"  horiz-adv-x="1024" />

    
    <glyph glyph-name="time" unicode="&#59342;" d="M512-104.727273a488.727273 488.727273 0 1 0 488.727273 488.727273 488.727273 488.727273 0 0 0-488.727273-488.727273z m0 919.272728a430.545455 430.545455 0 1 1 430.545455-430.545455A430.545455 430.545455 0 0 1 512 814.545455zM723.083636 326.981818l-236.218181 0.814546a29.090909 29.090909 0 0 0-28.974546 28.974545l-1.163636 293.12a29.090909 29.090909 0 0 0 28.974545 29.207273 29.44 29.44 0 0 0 29.207273-28.974546l1.047273-264.261818 207.36-0.698182a29.090909 29.090909 0 0 0 0-58.181818z"  horiz-adv-x="1024" />

    
    <glyph glyph-name="zichanguanli" unicode="&#58938;" d="M109.93 596.4100000000001c23.81-17.32 57-32.59 98.55-45.38C290 525.95 397.78 512.14 512 512.14S734 525.95 815.49 551c41.58 12.79 74.74 28.06 98.55 45.38 37.91 27.57 45.86 56.38 45.86 75.69s-8 48.11-45.86 75.69c-23.81 17.32-57 32.59-98.55 45.38C734 818.24 626.18 832.05 512 832.05s-222-13.81-303.53-38.89c-41.58-12.79-74.74-28.06-98.55-45.38C72 720.21 64.06 691.4 64.06 672.09S72 624 109.93 596.4100000000001zM147.57 696c17.83 13 45.4 25.41 79.72 36C302.88 755.24 404 768.05 512 768.05S721.08 755.24 796.67 732c34.32-10.56 61.89-23 79.72-36 14.38-10.46 19.51-19.22 19.51-23.93s-5.12-13.47-19.51-23.93c-17.83-13-45.4-25.41-79.72-36-75.59-23.2-176.67-36-284.67-36s-209.1 12.81-284.69 36.06c-34.32 10.56-61.89 23-79.72 36-14.38 10.46-19.51 19.22-19.51 23.93s5.11 13.43 19.49 23.87zM511.66 0C294.5 0 113.4 55 72.08 128c-5.8-10.26-8.85-20.87-8.85-31.74 0-88.25 200.77-159.8 448.43-159.8S960.08 8 960.08 96.28999999999996c0 10.87-3.05 21.48-8.85 31.74C909.92 55 728.82 0 511.66 0zM704 207v-63.49c151.39 25.66 256 80.67 256 144.38 0 10.87-3.05 21.48-8.85 31.74C923 269.78999999999996 829.6 228.33000000000004 704 207zM320 143.44000000000005v63.48C194.05 228.16999999999996 100.35 269.70000000000005 72.08 319.67999999999995c-5.8-10.26-8.85-20.87-8.85-31.74C63.23 224.12 168.2 169 320 143.44000000000005zM704 399.24v-63.49c151.39 25.66 256 80.67 256 144.38 0 10.87-3.05 21.48-8.85 31.74C923 462 829.6 420.52 704 399.24zM320 335.63v63.49C194.05 420.37 100.35 461.9 72.08 511.87c-5.8-10.26-8.85-20.87-8.85-31.74 0-63.81 104.97-118.88 256.77-144.5zM662.74 470.85a32 32 0 0 1-45.25 0L512 365.33000000000004 406.45 470.85a32 32 0 0 1-45.25-45.25l73.58-73.6H384a32 32 0 0 1 0-64h96v-63h-96a32 32 0 0 1 0-64h96v-96.84a32 32 0 0 1 64 0V161h96a32 32 0 0 1 0 64h-96v63h96a32 32 0 0 1 0 64h-50.85l73.58 73.58a32 32 0 0 1 0.01 45.27z"  horiz-adv-x="1024" />

    
    <glyph glyph-name="lou_dong_statistic" unicode="&#58907;" d="M159.744 240.70553600000005h704.512v-14.434304h-704.512zM336.4864 255.22995200000003h99.459072v207.757312h-99.459072v-207.757312z m14.442496 193.3312h70.582272v-178.888704h-70.582272v178.888704zM310.173696 255.22995200000003v313.204736h-99.459072v-313.204736h99.459072z m-14.442496 14.442496h-70.582272v284.336128h70.582272v-284.336128zM462.27456 255.22995200000003h99.459072v348.676096H462.27456v-348.676096z m14.434304 334.249984h70.582272v-319.807488h-70.582272v319.807488zM588.054528 255.22995200000003h99.45088v281.829376h-99.45088v-281.829376z m14.434304 267.395072h70.582272v-252.952576h-70.582272v252.952576zM713.834496 255.22995200000003h99.459072v381.861888h-99.459072v-381.861888z m14.442496 367.435776h70.582272v-352.99328h-70.582272v352.99328zM260.440064 580.15744a49.700864 49.700864 0 0 1 40.50944 20.938752l44.630016-48.41472a49.39776 49.39776 0 0 1-9.084928-28.606464c0-27.418624 22.306816-49.72544 49.72544-49.72544s49.72544 22.315008 49.72544 49.72544c0 15.85152-7.45472 29.966336-19.030016 39.084032l51.249152 75.333632a49.7664 49.7664 0 0 1 43.835392-26.271744c23.42912 0 43.098112 16.277504 48.349184 38.117376l39.043072-22.061056a49.512448 49.512448 0 0 1-11.337728-31.571968c0-27.426816 22.315008-49.72544 49.72544-49.72544s49.72544 22.306816 49.72544 49.72544a49.594368 49.594368 0 0 1-13.000704 33.488896l43.524096 46.661632a49.782784 49.782784 0 0 1 45.531136-29.77792 49.782784 49.782784 0 0 1 49.72544 49.72544 49.774592 49.774592 0 0 1-49.72544 49.72544 49.774592 49.774592 0 0 1-49.60256-52.895744l-50.642944-54.288384a49.381376 49.381376 0 0 1-25.526272 7.069696 49.39776 49.39776 0 0 1-27.017216-8.011776l-49.242112 27.828224c-2.195456 25.419776-23.560192 45.42464-49.52064 45.42464a49.790976 49.790976 0 0 1-49.364992-55.648256l-58.28608-85.663744a49.43872 49.43872 0 0 1-48.807936-7.192576l-47.693824 51.73248a49.774592 49.774592 0 0 1-47.415296 64.700416 49.782784 49.782784 0 0 1-49.72544-49.72544c-0.008192-27.40224 22.306816-49.700864 49.72544-49.700864z m503.119872 151.937024a35.332096 35.332096 0 0 0 35.291136-35.291136 35.340288 35.340288 0 0 0-35.291136-35.299328 35.332096 35.332096 0 0 0-35.291136 35.299328 35.332096 35.332096 0 0 0 35.291136 35.291136z m-90.488832-135.397376a35.332096 35.332096 0 0 0-35.291136-35.291136 35.332096 35.332096 0 0 0-35.299328 35.291136 35.340288 35.340288 0 0 0 35.299328 35.291136 35.332096 35.332096 0 0 0 35.291136-35.291136zM512 697.237504a35.340288 35.340288 0 0 0 35.291136-35.299328A35.332096 35.332096 0 0 0 512 626.6470400000001a35.332096 35.332096 0 0 0-35.291136 35.291136 35.340288 35.340288 0 0 0 35.291136 35.299328z m-125.779968-137.879552a35.340288 35.340288 0 0 0 35.291136-35.299328 35.332096 35.332096 0 0 0-35.291136-35.291136 35.332096 35.332096 0 0 0-35.291136 35.291136 35.332096 35.332096 0 0 0 35.291136 35.299328z m-125.779968 105.816064c19.456 0 35.291136-15.835136 35.291136-35.291136s-15.835136-35.291136-35.291136-35.291136-35.291136 15.835136-35.291136 35.291136 15.835136 35.291136 35.291136 35.291136z"  horiz-adv-x="1024" />

    
    <glyph glyph-name="yonghuguanli1" unicode="&#58881;" d="M745.427267 389.173895a323.476211 323.476211 0 0 1-160.768-467.375158L3.296741-76.584421A485.214316 485.214316 0 0 0 301.873583 429.002105a269.473684 269.473684 0 1 0 366.645895 0c26.947368-11.048421 52.655158-24.414316 76.961684-39.882105z m-62.194526-65.320421c24.414316 21.557895 53.140211 38.265263 84.776421 48.666947 17.785263-22.204632 45.109895-36.432842 75.776-36.432842s57.990737 14.228211 75.776 36.432842a242.256842 242.256842 0 0 0 85.908211-49.690947 96.848842 96.848842 0 0 1 6.359579-83.752421c15.306105-26.570105 41.283368-43.115789 69.416421-47.427369a243.604211 243.604211 0 0 0 0.053894-98.896842 96.848842 96.848842 0 0 1-69.52421-47.427368 96.848842 96.848842 0 0 1-6.25179-83.968c-24.737684-22.204632-54.056421-39.343158-86.393263-49.906527a96.848842 96.848842 0 0 1-75.883789 36.594527c-30.558316 0-57.882947-14.174316-75.668211-36.325053a242.364632 242.364632 0 0 0-89.249684 53.032421 96.794947 96.794947 0 0 1-6.898526 82.458947c-14.551579 25.330526-38.804211 41.498947-65.374316 46.726737a243.658105 243.658105 0 0 0 1.401263 102.777263 96.794947 96.794947 0 0 1 68.015158 47.157895c14.605474 25.276632 16.545684 54.379789 7.760842 79.97979z m160.606316-278.797474a97.010526 97.010526 0 1 1 0 194.021053 97.010526 97.010526 0 0 1 0-194.021053z"  horiz-adv-x="1131" />

    
    <glyph glyph-name="kaiguan1" unicode="&#58925;" d="M715.569479 698.720807c-21.985882 13.251765-29.145277 41.734454-15.867697 63.677311a46.604908 46.604908 0 0 0 63.892436 15.841882c147.172034-88.11563 237.206588-246.947496 237.103328-418.205042 0-269.312-218.740168-487.673546-488.51684-487.673546C242.404034-127.63858800000003 23.663866 90.72295799999995 23.663866 360.03495799999996c0 173.434622 91.376941 331.027361 237.61963 418.618084a46.725378 46.725378 0 0 0 63.892437-15.945143 46.553277 46.553277 0 0 0-15.970958-63.780571c-119.592874-71.335798-192.709916-200.041412-192.606656-338.89237 0-218.051765 177.048739-394.799328 395.479126-394.799328 218.430387 0 395.479126 176.747563 395.479126 394.799328 0 140.20195-73.74521 267.659832-191.978487 338.694454zM512.08605 894.210151c25.720471 0 46.467227-20.815597 46.467227-46.493042v-371.608739a46.415597 46.415597 0 0 0-46.467227-46.381177c-25.729076 0-46.467227 20.806992-46.467226 46.381177V847.717109c-0.103261 25.677445 20.738151 46.493042 46.467226 46.493042z"  horiz-adv-x="1024" />

    
    <glyph glyph-name="selected" unicode="&#59462;" d="M512 896C229.232 896 0 666.768 0 384s229.232-512 512-512 512 229.232 512 512S794.768 896 512 896z m-91.072-715.648L376.8 224.48000000000002l-1.136 1.136-134.64 134.64 45.248 45.248 134.64-134.64 316.784 316.784 45.248-45.248-362.016-362.048z"  horiz-adv-x="1024" />

    
    <glyph glyph-name="pie" unicode="&#58883;" d="M493.34759666 693.29412069v-321.7677176c0-0.94869733 0.36209822-1.89811885 1.08557043-2.6215911a3.69412601 3.69412601 0 0 1 2.6223153-1.08629465h331.93905651c0-172.42175638-144.80814636-305.13364971-317.64848827-305.13364971-172.84903227 0-312.96076477 135.09522379-312.96076477 307.51625598 0 172.43189514 125.25194586 323.09154867 294.9623108 323.09154867zM534.03150393 713.63607432c172.84034194 0 315.30426443-132.71116912 315.30426442-305.13292551H537.73938966c-0.94869733 0-1.89811885 0.36209822-2.62159109 1.08557045a3.69412601 3.69412601 0 0 0-1.08629466 2.62231527V713.63607432z"  horiz-adv-x="1024" />

    
    <glyph glyph-name="shexiangtou" unicode="&#58885;" d="M929.355028 629.563314A417.475317 417.475317 0 0 0 964.919199 459.895043a420.23223 420.23223 0 0 0-35.564171-169.747039 433.741101 433.741101 0 0 0-97.082703-138.633313 452.369952 452.369952 0 0 0-143.950216-93.459333c-32.374029-13.193795-65.772055-22.567298-100.154692-28.199276l39.384464-106.574359h113.89987c14.651021 0 26.623898-11.539648 26.623897-25.599902a26.230053 26.230053 0 0 0-26.623897-25.67867H282.543977a26.230053 26.230053 0 0 0-26.623897 25.639286c0 14.099638 11.972877 25.639286 26.623897 25.639286h113.89987l39.384464 106.574359a462.688682 462.688682 0 0 0-100.154692 28.199276 452.369952 452.369952 0 0 0-143.950215 93.459333 433.741101 433.741101 0 0 0-97.082704 138.633313A420.23223 420.23223 0 0 0 59.076529 459.895043c0 58.879774 11.972877 116.066015 35.564171 169.74704a433.741101 433.741101 0 0 0 97.082704 138.633313A452.369952 452.369952 0 0 0 335.673619 861.774113 465.996977 465.996977 0 0 0 511.997864 895.999212c61.124688 0 120.51646-11.539648 176.324245-34.382637 53.956716-21.897762 102.399606-53.444718 143.950216-93.459333a433.741101 433.741101 0 0 0 97.082703-138.633312zM449.691642-76.718277h124.612444l-39.384464 100.942381c-7.601202-0.393845-15.202403-0.551382-22.921758-0.551383-7.719355 0-15.320556 0.157538-22.921758 0.551383l-39.384464-100.942381z m344.889751 264.42729c75.500017 72.70372 117.050627 169.353195 117.050626 272.067877 0 102.714682-41.550609 199.403541-117.050626 272.107261-75.381864 72.70372-175.772862 112.678951-282.583529 112.678951-106.653128 0-207.083511-39.975231-282.583528-112.678951-75.500017-72.585567-117.050627-169.392579-117.050627-272.107261 0-102.714682 41.550609-199.364156 117.050627-272.067877 75.381864-72.70372 175.9304-112.718336 282.583528-112.718335s207.083511 40.014615 282.583529 112.718335zM511.997864 627.357784c129.69304 0 235.164634-101.414995 235.164634-226.30313 0-124.888135-105.471594-226.460667-235.164634-226.460667S276.83323 276.08775 276.83323 400.936501c0 124.848751 105.471594 226.460667 235.164634 226.460667z m-85.503671-220.552998c39.069388 0 70.892035 31.783262 70.892035 70.892035 0 39.069388-31.822647 70.892035-70.892035 70.892035-39.108773 0-70.892035-31.743878-70.892035-70.85265 0-39.108773 31.783262-70.892035 70.892035-70.892035zM511.997864 687.49786c-27.647894 0-50.057654 21.582686-50.057653 48.206584 0 17.250395 9.53104 33.161719 25.009134 41.747532a51.751186 51.751186 0 0 0 50.097038 0c15.478094-8.585813 25.009135-24.497137 25.009135-41.747532 0-26.623898-22.40976-48.206584-50.057654-48.206584z"  horiz-adv-x="1024" />

    
    <glyph glyph-name="xiugaimima" unicode="&#58939;" d="M706.18074075 562.10014814h-155.3445926v119.75126283h155.3445926a38.83614815 38.83614815 0 0 1 0 77.67229628h-155.3445926V833.95318518a38.83614815 38.83614815 0 0 1-77.6722963 0v-469.74262993c-99.26519467-18.33066192-174.76266667-105.381888-174.76266667-209.88996266 0-117.77061925 95.82819555-213.59881482 213.59881482-213.59881482s213.59881482 95.82819555 213.59881482 213.59881482c0 104.50807467-75.497472 191.55930075-174.76266667 209.88996266V484.42785185h155.3445926a38.83614815 38.83614815 0 0 1 0 77.67229629z m-58.25422223-407.77955555c0-74.93434785-60.99217067-135.92651852-135.92651852-135.92651852-74.95376592 0-135.92651852 60.99217067-135.92651852 135.92651852s60.97275259 135.92651852 135.92651852 135.92651851c74.93434785 0 135.92651852-60.99217067 135.92651852-135.92651851z"  horiz-adv-x="1024" />

    
    <glyph glyph-name="mobanguanli1" unicode="&#58889;" d="M866.304 102.4h-60.416v51.2h60.416c16.384 0 29.696 13.312 29.696 29.696V738.304a29.696 29.696 0 0 1-29.696 29.696H311.296a29.696 29.696 0 0 1-29.696-29.696v-60.416h-51.2V738.304c0 44.544 36.352 80.896 80.896 80.896h554.496c44.544 0 80.896-36.352 80.896-80.896v-554.496c0.512-45.056-35.84-81.408-80.384-81.408zM763.904 0h-55.296v51.2h55.296c16.384 0 29.696 13.312 29.696 29.696V635.904a29.696 29.696 0 0 1-29.696 29.696H208.896a29.696 29.696 0 0 1-29.696-29.696v-55.296h-51.2V635.904c0 44.544 36.352 80.896 80.896 80.896h554.496c44.544 0 80.896-36.352 80.896-80.896v-554.496c0.512-45.056-35.84-81.408-80.384-81.408zM661.504-102.4H106.496c-44.544 0-80.896 36.352-80.896 80.896V533.504c0 44.544 36.352 80.896 80.896 80.896h554.496c44.544 0 80.896-36.352 80.896-80.896v-554.496c0.512-45.056-35.84-81.408-80.384-81.408zM106.496 563.2a29.696 29.696 0 0 1-29.696-29.696v-554.496c0-16.384 13.312-29.696 29.696-29.696h554.496c16.384 0 29.696 13.312 29.696 29.696V533.504a29.696 29.696 0 0 1-29.696 29.696H106.496z"  horiz-adv-x="1024" />

    
    <glyph glyph-name="wifi-" unicode="&#58930;" d="M768 64c0-70.7-57.3-128-128-128s-128 57.3-128 128 57.3 128 128 128 128-57.3 128-128z"  horiz-adv-x="1280" />

    
    <glyph glyph-name="funnel" unicode="&#58893;" d="M866.909091 607.534545l-686.685091 0.093091L116.363636 709.818182h814.545455l-64-102.283637z m-88.669091-142.987636l-508.811636 0.093091-63.860364 102.190545H842.24l-64-102.283636z m-90.065455-142.987636l-329.774545 0.093091-63.883636 102.190545h457.681454l-64-102.283636z m-87.738181-142.987637l-153.669819 0.093091-63.860363 102.190546H664.436364l-64-102.283637z m-24.948364-40.680727L523.357091 58.181818l-52.130909 79.709091h104.261818z"  horiz-adv-x="1024" />

    
    <glyph glyph-name="bar" unicode="&#58895;" d="M220.485818 101.050182H837.818182v-34.304H186.181818V658.385455h34.304v-557.312zM306.222545 452.584727c18.944 0 34.304-15.36 34.304-34.280727v-265.914182h-68.608V418.304c0 18.944 15.36 34.280727 34.304 34.280727z m154.321455 137.192728c18.944 0 34.304-15.36 34.304-34.304v-403.083637h-68.584727v403.083637c0 18.944 15.36 34.304 34.280727 34.304zM614.888727 709.818182c18.944 0 34.304-15.36 34.304-34.304v-523.124364h-68.608V675.514182c0 18.944 15.36 34.304 34.304 34.304z m154.344728-257.233455c18.944 0 34.280727-15.36 34.280727-34.280727v-265.914182H734.952727V418.304c0 18.944 15.36 34.280727 34.304 34.280727z"  horiz-adv-x="1024" />

    
    <glyph glyph-name="hetongguanli1" unicode="&#58965;" d="M884.9-61.7H233.1c-23.2 0-42.1 18.9-42.1 42.1v85.9h64v-64h608V671.9l-57.3 0.3 0.4 64 79-0.4c23.1-0.1 42-18.9 42-42.1v-713.3c-0.1-23.2-19-42.1-42.2-42.1zM773.8 831.8H131.6c-17.6 0-32-14.4-32-32v-701.5c0-17.6 14.4-32 32-32h642.2c17.6 0 32 14.4 32 32V799.8c0 17.6-14.4 32-32 32z m-51.1-624.2c0-17.6-14.4-32-32-32h-476c-17.6 0-32 14.4-32 32s14.4 32 32 32h476c17.6 0 32-14.4 32-32z m0 154.8c0-17.6-14.4-32-32-32h-476c-17.6 0-32 14.4-32 32s14.4 32 32 32h476c17.6 0 32-14.4 32-32z m0 154.9c0-17.6-14.4-32-32-32h-476c-17.6 0-32 14.4-32 32s14.4 32 32 32h476c17.6 0 32-14.4 32-32z m0 147.2c0-13.4-10.9-24.3-24.3-24.3H434.9c-13.4 0-24.3 10.9-24.3 24.3v15.3c0 13.4 10.9 24.3 24.3 24.3h263.5c13.4 0 24.3-10.9 24.3-24.3v-15.3z"  horiz-adv-x="1024" />

    
    <glyph glyph-name="yanshouguanli" unicode="&#58914;" d="M478 816.7h-68.1c-21.7 0-39.2 17.6-39.2 39.2 0 21.7 17.6 39.2 39.2 39.2H478c21.7 0 39.2-17.6 39.2-39.2S499.7 816.7 478 816.7zM768.7 791h-276c5.5-8.8 8.7-19.3 8.7-30.4 0-31.8-25.7-57.5-57.5-57.5s-57.5 25.7-57.5 57.5c0 11.2 3.2 21.6 8.7 30.4H103.5c-37.4 0-67.7-30.9-67.7-69v-735.3c0-38.2 30.4-69 67.7-69H506c-41.2 52.2-65.9 118.5-65.9 190.8 0 168.1 133.8 304.5 298.7 304.5 34.1 0 66.9-5.9 97.5-16.6V722c0.1 38.1-30.2 69-67.6 69zM363.2 99.5H190c-23.8 0-43.1 19.7-43.1 43.9 0 24.3 19.3 43.9 43.1 43.9h173.2c23.7 0 43.1-19.7 43.1-43.9 0-24.3-19.3-43.9-43.1-43.9z m109.6 216H190c-23.7 0-43.1 19.6-43.1 43.9 0 24.3 19.3 43.9 43.1 43.9h282.7c23.8 0 43.1-19.7 43.1-43.9 0-24.3-19.3-43.9-43-43.9z m200.6 215.9H190c-23.7 0-43.1 19.6-43.1 43.9s19.3 43.9 43.1 43.9h483.4c23.8 0 43.1-19.7 43.1-43.9 0-24.3-19.3-43.9-43.1-43.9zM444 818c24.9 0 46.1-15.8 54.1-37.9h167.6c-0.3 41.9-36.3 75.8-80.7 75.8H303c-44.4 0-80.4-33.9-80.6-75.8H390c7.9 22.1 29.1 37.9 54 37.9zM752.7 343.8c-130 0-235.5-105.4-235.5-235.5s105.4-235.5 235.5-235.5 235.5 105.4 235.5 235.5-105.5 235.5-235.5 235.5z m158-167.2L730.1-4.1c-6.1-6.1-14.1-9.1-22.1-9.1-8 0-16 3-22.1 9.1l-91.2 91.2c-12.2 12.2-12.2 31.9 0 44.1 12.2 12.2 31.9 12.2 44.1 0L708 62l158.6 158.6c12.2 12.2 31.9 12.2 44.1 0 12.2-12.1 12.2-31.8 0-44z"  horiz-adv-x="1024" />

    
    <glyph glyph-name="ziduanyingshe" unicode="&#59138;" d="M63.993385 734.464326c0 22.85982 18.62652 41.521618 41.451063 41.521618h303.104282c22.824543 0 41.451063-18.661798 41.451063-41.521618V713.262549h124.035691v21.201777c0 22.85982 18.62652 41.521618 41.451063 41.521618h303.104282c22.789265 0 41.451063-18.661798 41.451063-41.521618v-105.97361c0-22.85982-18.62652-41.521618-41.451063-41.521618h-303.174837c-22.789265 0-41.451063 18.661798-41.451063 41.521618v21.201777h-123.965136v-21.201777c0-22.85982-18.62652-41.521618-41.451063-41.521618H105.444448c-22.789265 0-41.451063 18.661798-41.451063 41.521618V734.464326z m0-297.530437c0 22.85982 18.62652 41.521618 41.451063 41.521618h303.104282c22.824543 0 41.451063-18.661798 41.451063-41.521618v-21.201778h124.035691v21.201778c0 22.85982 18.62652 41.521618 41.451063 41.521618h303.104282c22.789265 0 41.451063-18.661798 41.451063-41.521618v-105.903056c0-22.85982-18.62652-41.521618-41.451063-41.521617h-303.174837c-22.789265 0-41.451063 18.661798-41.451063 41.521617v21.201778h-123.965136v-21.201778c0-22.85982-18.62652-41.521618-41.451063-41.521617H105.444448c-22.789265 0-41.451063 18.661798-41.451063 41.521617v105.903056zM959.900782 33.535674c0-22.85982-18.62652-41.521618-41.451063-41.521618h-303.104282c-22.789265 0-41.451063 18.661798-41.451063 41.521618v21.201777h-123.965136v-21.201777c0-22.85982-18.62652-41.521618-41.451063-41.521618h-303.033727c-22.789265 0-41.451063 18.661798-41.451063 41.521618v105.97361c0 22.85982 18.62652 41.521618 41.451063 41.521618h303.104282c22.824543 0 41.451063-18.661798 41.451063-41.521618v-21.201777h124.035691v21.201777c0 22.85982 18.62652 41.521618 41.451063 41.521618h303.104282c22.789265 0 41.451063-18.661798 41.451063-41.521618v-105.97361h-0.14111z m0 0"  horiz-adv-x="1024" />

    
    <glyph glyph-name="mima" unicode="&#58933;" d="M860.58 406.6c-0.09 47.06-29.76 88.04-72.49 101.63-16.6 5.3-33.82 6.09-51.12 5.3-7.68-0.35-12.01-0.71-11.12 10.95 2.12 28.52 2.47 57.39 1.23 86.09-4.06 94.48-70.11 174.13-163.18 198.41-88.3 23.04-182.87-15.72-233.64-93.86-40.62-62.34-35.23-130.94-31.97-201.58-11.92 0-22.69 0.26-33.38 0-56.25-1.5-101.1-46-101.37-102.16-0.53-117.88-0.62-235.75 0-353.63 0.35-57.31 44.94-104.2 101.9-104.54 165.29-1.06 330.68-0.97 495.97 0 55.01 0.35 98.9 46.71 99.16 101.89 0.45 117.15 0.36 234.33 0.01 351.5zM566.02 229.82c-8.65-6.53-11.3-12.72-11.04-22.87 0.62-25.78 0.44-51.66 0.18-77.44-0.44-29.76-17.31-47.68-43.97-47.24-25.7 0.35-41.77 18.01-42.21 46.8-0.26 15.1-0.44 30.11 0 45.21 0.8 26.23-0.09 48.39-23.75 69.58-25.52 22.95-25.96 57.83-10.95 89.88 15.54 33.03 42.91 48.39 72.4 50.51 42.12-0.44 75.76-25.34 87.33-59.96 11.47-34.51 1.06-72.48-27.99-94.47z m59.86 283.44c-37.35 0.71-74.7 0.27-112.05 0.27-38.06 0-76.2 0.79-114.26-0.35-14.84-0.45-17.75 4.68-17.22 18.1 1.06 22.96 0.09 46 0.35 68.96 0.8 71.88 57.39 128.65 128.48 129 71.17 0.35 128.65-55.8 130.15-127.68 0.53-24.46-0.71-48.92 0.35-73.29 0.54-12.88-4.23-15.18-15.8-15.01z"  horiz-adv-x="1024" />

    
    <glyph glyph-name="ziyuan" unicode="&#58954;" d="M989.316566 743.657324h-60.373265v60.373264A92.169851 92.169851 0 0 1 836.974694 895.999195h-744.603599A91.968607 91.968607 0 0 1 0 804.231833v-440.121101a94.584781 94.584781 0 0 1 94.584781-94.383537H100.622108v40.248843h-6.037327A54.335938 54.335938 0 0 0 40.248843 364.110732V804.231833A51.518519 51.518519 0 0 0 91.767362 855.750352h744.603599a51.719763 51.719763 0 0 0 51.719764-51.719764v-60.373264h-643.981491a91.968607 91.968607 0 0 1-91.767363-91.767363v-457.025614a77.479023 77.479023 0 0 1 77.479024-77.479023h37.431424v-238.474396a6.842303 6.842303 0 0 1 12.275897-4.226129l179.912329 228.412185a37.431424 37.431424 0 0 0 29.381656 14.28834h514.983948a77.680267 77.680267 0 0 1 77.680268 77.680267V651.487473a92.169851 92.169851 0 0 1-92.169851 92.169851z m51.921007-548.792977a37.23018 37.23018 0 0 0-37.23018-37.23018h-515.185192a77.479023 77.479023 0 0 1-60.373265-29.5829L319.777059-9.599777000000017a6.842303 6.842303 0 0 0-12.275897 4.226129v163.007815h-77.680267a37.23018 37.23018 0 0 0-37.23018 37.23018V651.889961a51.518519 51.518519 0 0 0 51.518519 51.518519h744.603599a51.921008 51.921008 0 0 0 51.921008-51.719763zM349.561203 572.800984h252.96398v-40.248843H349.561203zM349.561203 442.595976h523.234962v-40.248843h-523.234962zM349.561203 322.45318h296.633974v-40.248844H349.561203z"  horiz-adv-x="1081" />

    
    <glyph glyph-name="filter-fill" unicode="&#58929;" d="M513.536 20.13900000000001c-5.12 0-9.728 1.536-13.824 4.608-6.144 4.608-118.784 102.4-118.784 102.4-4.608 4.608-7.168 10.752-7.168 16.896V431.787L165.376 671.915c-8.192 10.24-6.656 25.6 4.096 33.792 4.096 3.072 9.728 5.12 14.848 5.12h550.912c6.656 0 12.288-2.56 16.896-7.168 4.608-4.608 7.168-10.752 7.168-16.896 0-5.632-2.048-11.264-5.632-15.872L537.6 431.275v-387.072c0-13.312-10.752-24.064-24.064-24.064zM660.992 68.779c-6.144 0-12.288 2.56-16.896 7.168-4.608 4.608-7.168 10.752-7.168 16.896 0 13.312 10.752 24.064 24.064 24.064H847.36c13.312 0 24.064-10.752 24.064-24.064s-10.752-24.064-24.064-24.064H660.992z m0 150.528c-13.312 0-24.064 10.752-24.064 24.064s10.752 24.064 24.064 24.064H847.36c13.312 0 24.064-10.752 24.064-24.064s-10.752-24.064-24.064-24.064H660.992z m0 148.992c-13.312 0-24.064 11.264-23.552 24.576 0 13.312 10.752 23.552 23.552 23.552h185.856c13.312 0 24.064-10.752 24.064-24.064s-10.752-24.064-24.064-24.064H660.992z"  horiz-adv-x="1024" />

    
    <glyph glyph-name="zjgl" unicode="&#58899;" d="M1116.600979-94.117461l-234.512855 234.512855 175.123236 175.123236a19.035134 19.035134 0 0 1-27.02989 27.02989l-86.41951-86.800212-180.072371 180.072371 212.812802 212.812801a19.415837 19.415837 0 0 1 5.329837 9.89827l38.070269 216.239126a18.273729 18.273729 0 0 1-5.329838 16.750918 18.273729 18.273729 0 0 1-15.228107 4.18773l-216.619829-38.070269a18.654432 18.654432 0 0 1-10.278972-4.949135l-212.432099-214.335612-210.528586 210.147883a16.750918 16.750918 0 0 1-11.040378 5.329837L128.677508 881.242822A17.893026 17.893026 0 0 1 114.210806 875.532281a19.79654 19.79654 0 0 1-6.852648-17.893026l33.121133-204.05664a19.035134 19.035134 0 0 1 5.329838-10.659675l210.147883-210.147883-177.407452-175.884641-86.800213 86.41951a18.654432 18.654432 0 1 1-26.649188-26.649188l174.742533-175.123236L5.71054-94.117461a19.035134 19.035134 0 0 1 13.324594-32.359728 19.035134 19.035134 0 0 1 13.324594 5.329837L266.491881 114.507611l175.123235-175.123235a19.79654 19.79654 0 0 1 13.324594-5.329838 20.557945 20.557945 0 0 1 13.705297 5.329838 19.415837 19.415837 0 0 1 0 27.02989L380.702686 53.214479l177.407452 177.407452 180.072371-180.072371-86.41951-86.800213a19.035134 19.035134 0 0 1 13.324594-32.359728 19.415837 19.415837 0 0 1 13.705297 5.71054l174.742533 174.742533 234.512855-234.132152a19.035134 19.035134 0 0 1 13.324594-5.71054 19.415837 19.415837 0 0 1 13.705297 5.71054 19.035134 19.035134 0 0 1 1.52281 28.171999zM177.026749 667.287912l-27.791296 172.83902 178.168857-23.222864 205.579451-205.579451-149.996858-149.996858z m213.574207-251.644476a19.79654 19.79654 0 0 1 7.233351 4.18773 17.131621 17.131621 0 0 1 4.18773 7.233351L567.627705 591.147375a15.989513 15.989513 0 0 1 6.852649 4.187729 17.893026 17.893026 0 0 1 4.568432 7.233351L795.287912 819.568987l183.498695 33.121133-33.501837-183.117992-582.855813-582.47511-149.996858 149.996858z m346.058742-7.614053l172.83902-173.219723L761.405373 84.432099l-172.83902 172.83902z"  horiz-adv-x="1122" />

    
    <glyph glyph-name="zzgl" unicode="&#58900;" d="M1045.618977 346.550151A245.72046 245.72046 0 0 1 939.850596 814.665724v-40.216115a205.906506 205.906506 0 0 0 0-411.813012v-40.216115A349.075874 349.075874 0 0 0 1286.915664-27.057553h40.216114a389.694149 389.694149 0 0 1-281.512801 373.607704zM388.487666 322.420482v40.216115A205.906506 205.906506 0 0 0 388.487666 774.449609V814.665724A245.72046 245.72046 0 0 1 281.512801 347.756634v-2.010805a388.889827 388.889827 0 0 1-281.512801-371.596898h40.216114a349.478035 349.478035 0 0 0 349.478035 349.478035zM778.986138 338.104767a290.762508 290.762508 0 1 1-229.634014 0 462.083155 462.083155 0 0 1-346.260746-445.99671 20.510218 20.510218 0 0 1 20.108057-20.108057 20.108057 20.108057 0 0 1 20.108058 20.108057 420.660558 420.660558 0 1 0 841.321115 0 20.510218 20.510218 0 0 1 20.108057-20.108057 20.108057 20.108057 0 0 1 20.108057 20.108057 461.680994 461.680994 0 0 1-345.858584 445.99671z m-365.16232 266.632839a250.546393 250.546393 0 1 0 250.144232-250.144232 250.546393 250.546393 0 0 0-250.144232 250.144232z"  horiz-adv-x="1328" />

    
    <glyph glyph-name="glzx" unicode="&#58901;" d="M457.454545 420.363636h-290.90909A165.818182 165.818182 0 0 0 0 586.181818v145.454546A165.818182 165.818182 0 0 0 165.818182 896h145.454545a165.818182 165.818182 0 0 0 165.818182-165.818182v-290.909091a18.545455 18.545455 0 0 0-19.636364-18.909091zM165.818182 859.636364A129.818182 129.818182 0 0 1 36.363636 730.181818v-145.454545a129.818182 129.818182 0 0 1 129.454546-129.454546h273.454545V730.181818A129.818182 129.818182 0 0 1 309.818182 859.636364zM858.545455 420.363636h-290.909091a18.545455 18.545455 0 0 0-18.181819 18.181819v290.90909A165.818182 165.818182 0 0 0 714.181818 896h145.454546a165.818182 165.818182 0 0 0 165.454545-165.818182v-145.454545a165.818182 165.818182 0 0 0-166.545454-164.363637z m-273.818182 36.363637h273.818182a129.454545 129.454545 0 0 1 129.090909 129.454545v145.454546A129.454545 129.454545 0 0 1 858.545455 859.636364h-145.454546a129.818182 129.818182 0 0 1-129.454545-129.454546zM309.818182-128h-145.454546A165.818182 165.818182 0 0 0 0 37.454545v145.454546a165.818182 165.818182 0 0 0 165.818182 165.454545h290.909091a18.181818 18.181818 0 0 0 18.181818-18.181818v-290.909091a165.818182 165.818182 0 0 0-165.090909-167.272727z m-145.454546 438.909091A129.454545 129.454545 0 0 1 36.363636 181.818182v-145.454546a129.454545 129.454545 0 0 1 129.454546-129.090909h145.454545a129.454545 129.454545 0 0 1 129.454546 129.090909v274.545455zM858.545455-128h-145.454546a165.818182 165.818182 0 0 0-165.818182 165.454545v290.909091a18.181818 18.181818 0 0 0 18.181818 18.181819h290.909091a165.454545 165.454545 0 0 0 165.454546-165.454546v-145.454545a165.454545 165.454545 0 0 0-163.272727-163.636364z m-273.818182 438.909091v-273.454546a129.454545 129.454545 0 0 1 129.454545-129.090909h145.454546a129.090909 129.090909 0 0 1 129.090909 129.090909v145.454546a129.090909 129.090909 0 0 1-129.090909 129.090909z"  horiz-adv-x="1025" />

    
    <glyph glyph-name="ssgl" unicode="&#58902;" d="M512.007518 896a511.992584 511.992584 0 1 1 511.992584-511.683597A512.301572 512.301572 0 0 1 512.007518 896z m0-992.777413a481.093816 481.093816 0 1 0 481.093817 481.093816 481.402804 481.402804 0 0 0-481.093817-481.093816zM682.259729 695.775984H330.940738v-83.117686H216.615297v-90.53339a131.628751 131.628751 0 0 1 131.319764-131.319763A176.740952 176.740952 0 0 1 494.704208 287.294272a14.213433 14.213433 0 0 1-1.544938-6.488741v-176.122977h-83.426674a15.449384 15.449384 0 0 1-15.449384-15.449384 15.449384 15.449384 0 0 1 15.449384-15.449384h196.207177a15.758372 15.758372 0 0 1 15.449384 15.449384 15.449384 15.449384 0 0 1-15.449384 15.449384h-82.808698v176.122977a16.685335 16.685335 0 0 1-1.544939 6.797729 175.196014 175.196014 0 0 1 145.224209 102.892897h1.853926a131.937739 131.937739 0 0 1 131.628752 131.628751V612.658298h-118.033294z m-351.010003-273.145108A101.038971 101.038971 0 0 0 247.514065 522.124908v59.634622h83.426673v-123.904059zM651.360961 463.417249a144.606234 144.606234 0 0 0-289.212467-2.780889V664.877216h289.521455z m32.752694 119.269244h85.2806v-60.561585a101.038971 101.038971 0 0 0-85.2806-99.494032z"  horiz-adv-x="1024" />

    
    <glyph glyph-name="xsgl" unicode="&#58904;" d="M511.789712 333.448279a281.27586 281.27586 0 1 0 281.275861 281.275861 281.27586 281.27586 0 0 0-281.275861-281.275861z m0 529.822617a248.870807 248.870807 0 1 1 248.870808-248.546756A248.870807 248.870807 0 0 1 511.789712 863.270896zM944.721221-127.999676H79.182254a15.554425 15.554425 0 0 0-11.989869 5.508859A15.554425 15.554425 0 0 0 62.979728-108.880695l32.405053 314.653065a90.734149 90.734149 0 0 0 78.096178 89.113896l181.468297 22.683537a15.878476 15.878476 0 0 0 13.286071-4.536707l143.878436-143.878436L655.668148 312.384995a16.526577 16.526577 0 0 0 13.286072 4.536707l181.144246-22.683537a91.38225 91.38225 0 0 0 78.420228-90.086047l32.405053-313.680914a16.526577 16.526577 0 0 0-16.202526-17.822779z m-847.716188 32.405053h829.893409l-30.784801 296.830286v1.620253a59.301247 59.301247 0 0 1-50.551882 58.653146l-172.718933 21.711385-149.387295-149.711345a16.526577 16.526577 0 0 0-11.341768-4.860758 16.526577 16.526577 0 0 0-11.341769 4.860758L351.060649 283.220447l-173.367033-21.711385A59.301247 59.301247 0 0 1 127.789834 202.855916z"  horiz-adv-x="1024" />

    
    <glyph glyph-name="cp" unicode="&#58906;" d="M325.52489 94.286074a32.26213 32.26213 0 0 1 23.873976-10.00126 32.26213 32.26213 0 0 1 23.873976 10.00126l52.909893 52.909893a32.26213 32.26213 0 0 1 0 47.425331l-8.710775 8.710775h1.613106l331.332073 331.977316 1.613107 2.258349 9.356017-9.033396a32.26213 32.26213 0 0 1 47.425331 0l52.909893 52.909892a32.26213 32.26213 0 0 1 0 47.747953l-258.097038 258.097038a33.875236 33.875236 0 0 1-47.425331 0L504.257089 831.47574a32.26213 32.26213 0 0 1 0-47.42533l9.033396-9.356018h-2.258349L180.022684 444.330183v-1.613107l-9.678639 9.678639a32.26213 32.26213 0 0 1-47.42533 0l-54.523-53.555135a32.26213 32.26213 0 0 1-9.678639-23.551355 34.8431 34.8431 0 0 1 9.678639-24.196597zM582.008822 863.73787l258.097038-258.097038-55.168242-53.232514-258.097038 258.097038z m-46.134846-111.626969l193.572779-193.572779a1.935728 1.935728 0 0 0 0-1.935728L394.565848 227.206049l-191.637052 193.572779z m-389.726528-322.621298l258.097038-258.097038a1.935728 1.935728 0 0 0 0-2.258349l-55.813484-52.264651-258.097039 258.097039zM988.834279 0.725898L631.692502 357.867675a16.131065 16.131065 0 0 1-22.906113 0 16.131065 16.131065 0 0 1 0-22.583491L965.928166-21.857593a16.453686 16.453686 0 0 1 11.614367-4.839319 16.131065 16.131065 0 0 1 11.291746 27.42281zM849.461878-95.73787H46.457467a16.131065 16.131065 0 0 1-16.131065-16.131065 16.131065 16.131065 0 0 1 16.131065-16.131065h803.004411a16.131065 16.131065 0 0 1 16.131065 16.131065 16.131065 16.131065 0 0 1-16.131065 16.131065z"  horiz-adv-x="1024" />

    
    <glyph glyph-name="nav_Statistics" unicode="&#58909;" d="M810.62 303.758c-153.184-0.1-231.777 0-298.67 0-45.196 0-85.292 30.897-85.292 85.292V687.42c0 145.786-118.188 88.292-119.288 87.892C127.088 711.918 0 537.935 0 335.255 0 79.38 207.28-128 462.955-128c202.48 0 374.563 130.087 437.457 311.37-0.7-1.8 51.695 120.388-89.791 120.388zM1018.6 488.64C975.306 690.52 818.92 851.304 616.54 891.3 501.95 913.998 514.35 847.105 514.35 798.41v-306.67c0-58.495 59.994-104.99 102.89-104.99h308.67c50.095 0 117.588-13.899 92.69 101.89z"  horiz-adv-x="1024" />

    
    <glyph glyph-name="nav_Organize" unicode="&#58911;" d="M866.783 295.832H752.235l-108.19 187.39c28.135 15.377 47.225 45.234 47.225 79.557V740.1c0 50.043-40.567 90.61-90.61 90.61H423.34c-50.042 0-90.61-40.567-90.61-90.61v-177.322c0-34.323 19.09-64.179 47.225-79.555l-108.19-187.391H157.217c-50.042 0-90.61-40.567-90.61-90.61V27.9c0-50.042 40.567-90.61 90.61-90.61h177.322c50.042 0 90.61 40.567 90.61 90.61v58.414h173.703V27.9c0-50.042 40.567-90.61 90.61-90.61h177.322c50.042 0 90.61 40.567 90.61 90.61V205.222c-0.002 50.042-40.569 90.61-90.61 90.61zM425.148 146.808v58.414c0 47.721-36.915 86.738-83.734 90.262l102.01 176.685h137.15l102.01-176.685c-46.818-3.525-83.733-42.54-83.733-90.262v-58.414H425.148z"  horiz-adv-x="1024" />

    
    <glyph glyph-name="nav_Assets" unicode="&#58912;" d="M893.095 238.789c35.849 0 63.905-26.544 63.905-59.333 0-18.737-12.469-39.035-29.615-48.404L547.07-51.632v1.561c-9.352-6.246-21.821-10.93-34.291-10.93-12.469 0-24.939 4.684-34.291 10.93v-1.561L98.173 137.298c-17.145 9.368-29.615 26.544-29.615 45.281 0 31.228 20.263 60.895 63.905 56.211 12.469-1.561 24.939-1.561 34.291-7.807l346.025-168.632L857.245 227.86s10.911 10.929 35.85 10.929z m0 201.421c35.849 0 63.905-28.105 63.905-60.895 0-18.737-12.469-39.035-29.615-48.404L547.07 148.228v1.562c-9.352-6.246-21.821-10.93-34.291-10.93-12.469 0-24.939 4.684-34.291 10.93v-1.562L98.173 337.158c-17.145 9.368-29.615 26.544-29.615 45.281 0 31.228 20.263 60.895 63.905 56.21 12.469-1.561 24.939-1.561 34.291-7.807L512.779 262.21l344.466 167.07c0 0.001 10.911 10.93 35.85 10.93zM98.173 543.263C81.028 554.193 67 569.807 67 588.544s12.469 35.912 29.615 45.281v1.561L478.489 819.632v-1.561C487.841 824.316 500.31 829 512.779 829c12.469 0 24.939-1.561 34.291-7.807v1.562l380.315-187.368v-1.561c17.146-9.37 29.615-26.545 29.615-45.282 0-18.737-12.469-35.912-29.615-45.281v-1.561L547.07 354.333v1.561c-9.352-6.246-21.821-10.93-34.291-10.93-12.469 0-24.939 4.684-34.291 10.93v-1.561L98.173 543.263z"  horiz-adv-x="1024" />

    
    <glyph glyph-name="nav_Sale" unicode="&#58917;" d="M169.606 341.295V570.796c37.38 160.119 176.607 273.026 342.716 273.026 164.42 0 302.213-110.603 341.334-267.905v-232.113c68.46 0 120.537 54.892 120.537 122.534a122.38 122.38 0 0 1-67.898 110.142C865.689 763.43 704.956 896 512.322 896 319.945 896 159.11 763.635 118.504 576.94a122.483 122.483 0 0 1-68.615-110.602c0-67.59 52.536-125.043 119.717-125.043M806.445 462.907a294.43 294.43 0 1 0-588.86 0 294.43 294.43 0 1 0 588.86 0M801.631 202.068l-15.822 8.5-13.313-12.084c-63.956-58.425-158.941-91.81-260.48-91.81-101.643 0-196.577 33.385-260.481 91.81l-13.314 12.084-15.822-8.5C91.519 131.712 36.422 47.07 25.77-99.99a25.859 25.859 0 0 1 25.603-27.958l0.358 0.051h922.41l-0.052 0.052 0.41-0.052a25.961 25.961 0 0 1 23.759 27.907c-10.6 147.061-65.747 231.703-196.628 302.06"  horiz-adv-x="1024" />

    
    <glyph glyph-name="nav_Project" unicode="&#58918;" d="M905.846 793.6c-7.877 7.877-15.754 25.6-33.477 33.477-7.877 7.877-15.754 25.6-25.6 33.477-7.877 15.754-25.6 25.6-41.354 25.6H254.031c-15.754 0-33.477 0-41.354-7.877-7.877-7.877-15.754-7.877-25.6-15.754l-25.6-27.57-43.323-41.353c-7.877-15.754-23.63-33.477-33.477-49.23H945.23c-15.754 15.753-23.631 33.476-39.385 49.23z m7.877-559.262H110.277c-33.477 0-59.077-7.876-74.83-25.6-15.755-25.6-25.6-41.353-25.6-66.953v-159.508c0-33.477 7.876-59.077 33.476-74.83 15.754-15.755 41.354-25.6 66.954-25.6h795.57c33.476 0 59.076 7.876 74.83 25.6s25.6 41.353 25.6 66.953V141.785c0 25.6-7.877 49.23-25.6 66.953-9.846 15.754-33.477 25.6-66.954 25.6zM594.708 33.477c-7.877-7.877-7.877-7.877-15.754-7.877h-126.03c-7.878 0-15.755 0-25.6 7.877 0 7.877-7.878 15.754-7.878 25.6 0 7.877 0 15.754 7.877 15.754 7.877 7.877 7.877 7.877 25.6 7.877h118.154c7.877 0 15.754 0 15.754-7.877 7.877-7.877 7.877-7.877 7.877-15.754 9.846-9.846 0-17.723 0-25.6z m393.846 592.738c-15.754 15.754-41.354 25.6-74.83 25.6H110.276c-33.477 0-59.077-7.877-74.83-25.6s-25.6-33.477-25.6-59.077v-167.384c0-25.6 7.876-49.23 25.6-66.954s41.353-25.6 74.83-25.6h803.446c33.477 0 59.077 7.877 74.83 25.6s25.6 41.354 25.6 66.954V567.138c0 25.6-9.845 43.324-25.6 59.077zM571.077 450.954H452.923c-7.877 0-15.754 0-15.754 7.877-7.877 7.877-7.877 7.877-15.754 25.6 0 7.877 0 15.754 7.877 15.754 7.877 7.877 7.877 7.877 25.6 7.877h116.185c7.877 0 15.754 0 15.754-7.877 7.877 0 15.754-7.877 15.754-15.754-7.877-25.6-15.754-33.477-31.508-33.477z"  horiz-adv-x="1024" />

    
    <glyph glyph-name="nav_knowledge_base" unicode="&#58919;" d="M822.578-62.645H272.153V694.187h240.809v-313.912l121.816 92.52 118.996-92.52V694.187H891.38v-688.029c0-37.961-30.841-68.801-68.802-68.801v-0.002z m-187.8 580.523l-87.413-68.803V728.588h172.006v-279.512l-84.593 68.802zM168.951 762.989v-34.401c0-19.016 15.385-34.403 34.4-34.403h34.403v-756.832H203.35c-38.028 0-68.801 30.84-68.801 68.802V762.989c0 38.028 30.773 68.801 68.801 68.801h619.227c25.397 0 47.301-13.909 59.261-34.401H203.35c-19.015 0-34.399-15.386-34.399-34.4z"  horiz-adv-x="1024" />

    
    <glyph glyph-name="nav_outsourced" unicode="&#58920;" d="M0 896h1024v-1024H0zM848.457 340.114H555.886v-285.257c0-43.886 36.571-80.457 80.457-80.457h212.114c43.886 0 80.457 36.571 80.457 80.457v204.8c0 43.886-36.571 80.457-80.457 80.457zM95.086 259.657v-212.114c0-43.886 36.571-80.457 80.457-80.457h212.114c43.886 0 80.457 36.571 80.457 80.457V340.114H175.543c-43.886 0-80.457-36.571-80.457-80.457zM387.657 800.914H175.543c-43.886 0-80.457-29.257-80.457-80.457v-212.114c0-43.886 36.571-80.457 80.457-80.457h292.571V720.457c0 43.886-36.571 80.457-80.457 80.457z m541.257-256V691.2c0 65.829-51.2 109.714-117.028 109.714H665.6c-65.829 0-124.343-43.885-124.343-109.714v-270.629h263.314c73.143 0 124.343 58.515 124.343 124.343zM636.343 691.2c0 14.629 14.628 21.943 29.257 21.943h146.286c14.628 0 29.257-7.314 29.257-21.943v-146.286c0-14.628-7.314-36.571-29.257-36.571H636.343V691.2z"  horiz-adv-x="1024" />

    
    <glyph glyph-name="nav_GR_attendance" unicode="&#58921;" d="M805.33 469.584c-12.012 0-21.02-3.003-33.032-6.006h-3.003c-18.018 30.029-51.05 51.05-87.085 51.05-12.012 0-24.024-3.003-36.035-6.006-18.018 33.032-51.05 51.05-90.088 51.05-6.006 0-15.015 0-21.02-3.003v60.058c0 60.059-45.045 108.106-105.104 108.106s-108.105-48.047-108.105-108.106V331.45l-18.018 18.017c-18.017 18.018-45.044 30.03-75.073 30.03s-60.059-12.012-78.076-30.03c-42.041-42.04-54.053-111.108-6.006-159.155l243.237-243.238c6.006-6.006 12.012-9.008 18.018-15.014C450.984-103.977 505.037-128 619.148-128c267.261 0 288.282 156.152 288.282 318.31V364.48c3.003 57.057-42.041 105.104-102.1 105.104zM255.793 415.53c3.003 0 9.01-3.003 12.012-3.003 6.006 0 12.012 3.003 18.018 9.009 6.006 9.008 6.006 24.023-6.006 30.029-57.056 42.041-90.088 108.106-90.088 177.173 0 123.12 99.097 222.217 222.217 222.217 123.12 0 222.217-99.097 222.217-222.217 0-15.015 0-30.03-6.006-45.044-3.003-12.012 6.006-24.023 18.018-24.023 12.011-3.003 24.023 6.005 24.023 18.017 3.003 18.018 6.006 36.035 6.006 54.053C676.204 778.886 559.09 896 411.946 896S147.688 775.883 147.688 628.739c0-84.082 39.038-162.158 108.105-213.208z"  horiz-adv-x="1024" />

    
    <glyph glyph-name="nav_BM_attendance" unicode="&#58922;" d="M903.872 716.48c11.648-11.648 17.792-26.24 18.368-43.776v-593.28c-0.576-17.472-6.72-32.064-18.368-43.776-11.648-11.648-26.24-17.792-43.776-18.368H630.848l-112-112c-2.944-2.304-6.72-3.52-11.392-3.52s-8.448 1.152-11.392 3.52l-112 112H154.88c-17.472 0.576-32.064 6.72-43.776 18.368-11.648 11.648-17.792 26.24-18.368 43.776v593.28c0.576 17.472 6.72 32.064 18.368 43.776 11.648 11.648 26.24 17.792 43.776 18.368h229.248l112-112c2.944-2.944 6.72-4.352 11.392-4.352s8.448 1.472 11.392 4.352l112 112H860.16c17.408-0.576 32-6.72 43.712-18.368zM768.384 490.432c-1.472 12.8-6.592 24.768-15.296 35.904-8.768 8.192-18.944 11.52-30.656 10.048-11.648-1.472-21.888-6.592-30.656-15.296l-190.72-218.752-112 100.608c-11.648 8.768-23.616 12.8-35.904 12.224-12.224-0.576-22.72-6.4-31.488-17.472-8.192-8.768-11.968-18.944-11.392-30.656 0.576-11.648 6.4-21.888 17.472-30.656l145.28-140.032c2.944-2.944 6.848-5.568 11.84-7.872 4.928-2.368 10.368-3.52 16.192-3.52 16.896 0 28.032 5.568 33.28 16.64l224 252.032c8.128 11.712 11.52 24 10.048 36.8z"  horiz-adv-x="1024" />

    
    </font>
</defs>
</svg>
